/* XPM */
static const char *autoupdate_disabled_xpm[] = {
/* columns rows colors chars-per-pixel */
"22 16 17 1",
"  c gray50",
". c #818181",
"X c #8d8d8d",
"o c #959595",
"O c #989898",
"+ c #a4a4a4",
"@ c #aeaeae",
"# c #b3b3b3",
"$ c #bababa",
"% c gray77",
"& c #cacaca",
"* c #d4d4d4",
"= c #e1e1e1",
"- c #ececec",
"; c #f0f0f0",
": c #fefefe",
"> c None",
/* pixels */
">>>>>>>>>>>>>>>>>>>>>>",
">>>>>>>>>          >>>",
">>>>>>>> =*%$@#$#   >>",
">>>>>>>.*&@@@#@#;#   >",
"::>>>>.&%#$*-:-::-O   ",
": :>>>.&##=:::::: *   ",
":  :>> %@*::::::  O   ",
":   :>@@@@@@@::       ",
":    :@@@@@#::        ",
":     :@@@@::    .    ",
":     :$@@::::::$.+   ",
":    : -@::::::*X.+   ",
":   :> +;::=:*$o.+X   ",
":  :>>  $-     .++    ",
": :>>>  .XOX.o+@O     ",
"::>>>>>  .           >"
};
