/* XPM */
static const char *autoinstall_disabled_xpm[] = {
/* columns rows colors chars-per-pixel */
"22 16 13 1",
"  c gray50",
". c #7f807f",
"X c #828382",
"o c #878887",
"O c #8b8c8b",
"+ c #8e908e",
"@ c gray78",
"# c #c9c9c9",
"$ c gray84",
"% c #eaeaea",
"& c #f3f3f3",
"* c #fefefe",
"= c None",
/* pixels */
"=====****************=",
"=====*.O Xo.XX X..oo*=",
"=====*o************.*=",
"=====* ************.* ",
"**===*.**********  *% ",
"* *==*.*********    * ",
"*  *=*.***&****    *@.",
"*   **.*  *%&*    *.$ ",
"*    **    **   .*@.%.",
"*     **        *@$.* ",
"*     *%*   O  *#$%.*=",
"*    *X&%*    *@$%&.*=",
"*   **X**%*  *@$%** *=",
"*  *=*X**&%**@$%&** *=",
"* *==*.O   ...X...OX*=",
"**===*******&%*******="
};
