/* XPM */
static const char *autoupdate_xpm[] = {
/* columns rows colors chars-per-pixel */
"22 16 36 1",
"  c #000000",
". c #1b1b1b",
"X c #212121",
"o c #2c2c2c",
"O c #303030",
"+ c #454545",
"@ c gray30",
"# c gray32",
"$ c gray37",
"% c #6c6c6c",
"& c #7b7b7b",
"* c #329529",
"= c #448e3d",
"- c #4ba143",
"; c #4fa448",
": c #53a44b",
"> c #59a552",
", c #799376",
"< c #6cb165",
"1 c #70b36a",
"2 c #76b670",
"3 c #84bb7f",
"4 c gray60",
"5 c #8cbf88",
"6 c #a5a5a5",
"7 c #aeaeae",
"8 c #95c890",
"9 c #a1c49e",
"0 c #b7dab3",
"q c #c4c4c4",
"w c LightGray",
"e c gainsboro",
"r c #d1e7cf",
"t c #e2e2e2",
"y c #fefefe",
"u c None",
/* pixels */
"uuuuuuuuuuuuuuuuuuuuuu",
"uuuuuuuuu          uuu",
"uuuuuuuu q51;*->=   uu",
"uuuuuuu 92******t%   u",
"yyuuuu 41*-8ryryyeo   ",
"y yuuu 3*-0yyyyyy 7   ",
"y  yuu <*8yyyyyy  o   ",
"y   yu*******yy       ",
"y    y******yy        ",
"y     y****yy         ",
"y     y:**yyyyyy& +   ",
"y    y w*yyyyyy6X #   ",
"y   yu @tyyqyq&. #.   ",
"y  yuu  ,e      #+    ",
"y yuuu   .OX X@%o     ",
"yyuuuuu              u"
};
