/* XPM */
static const char *autoinst_xpm[]={
"20 20 10 1",
". c None",
"e c #0000c0",
"c c #0058c0",
"b c #0080ff",
"d c #58a8ff",
"a c #808080",
"h c #c3c3c3",
"# c #ff0000",
"f c #ffff00",
"g c #ffffff",
"....................",
"....................",
"..........#.........",
"..........a.........",
"..........a.........",
".......bbbbbbb......",
"......ccbdbbcce.....",
"......cafdbbfae.....",
"......ccbdbbcce.....",
"......ccbdbbcce.....",
"......ccbghhcce.....",
".......cbdbbcc......",
".........ccc........",
".......cbdbbcc......",
"...cbeccbdbbcceecb..",
"...cbeccbdbbcceecb..",
"...cb.ccbdbbcce.cb..",
"...cb.ccbdbbcce.cb..",
"....................",
"...................."};
