/* XPM */
static const char * dep_xpm[] = {
"18 18 3 1",
" 	c None",
".	c #000000",
"+	c #FFFFFF",
"                  ",
"                  ",
"                  ",
"                  ",
"                  ",
".               ++",
"..             +..",
"...     +     +...",
"....   +.+   +....",
"..... +...+ +....+",
"....  +....+....+ ",
"...    +.......+  ",
"..      +.....+   ",
".        +...+    ",
"          +.+     ",
"           +      ",
"                  ",
"                  "};
