/* XPM */
static const char * noinst_disabled_xpm[] = {
"22 16 3 1",
" 	c None",
".	c #FFFFFF",
"+	c #A0A0A0",
"     ................ ",
"     .++++++++++++++. ",
"     .+............+. ",
"     .+.++++++++++.+. ",
"     .+.++++++++++.+. ",
"     .+.++++++++++.+. ",
"     .+.++++++++++.+. ",
"     .+.++++++++++.+. ",
"     .+.++++++++++.+. ",
"     .+.++++++++++.+. ",
"     .+.++++++++++.+. ",
"     .+.++++++++++.+. ",
"     .+.++++++++++.+. ",
"     .+............+. ",
"     .++++++++++++++. ",
"     ................ "};
