/* XPM */
static const char * protected_disabled_xpm[] = {
"22 16 56 1",
" 	g None",
".	g #C7C7C7",
"+	g #CFCFCF",
"@	g #DFDFDF",
"#	g #C4C4C4",
"$	g #C2C2C2",
"%	g #EFEFEF",
"&	g #C3C3C3",
"*	g #B6B6B6",
"=	g #BABABA",
"-	g #C0C0C0",
";	g #D5D5D5",
">	g #BBBBBB",
",	g #B0B0B0",
"'	g #D4D4D4",
")	g #EDEDED",
"!	g #E5E5E5",
"~	g #BEBEBE",
"{	g #CCCCCC",
"]	g #E8E8E8",
"^	g #D8D8D8",
"/	g #BFBFBF",
"(	g #BCBCBC",
"_	g #D1D1D1",
":	g #DEDEDE",
"<	g #CBCBCB",
"[	g #D3D3D3",
"}	g #C1C1C1",
"|	g #B8B8B8",
"1	g #AFAFAF",
"2	g #ABABAB",
"3	g #ECECEC",
"4	g #EBEBEB",
"5	g #DADADA",
"6	g #A2A2A2",
"7	g #A1A1A1",
"8	g #D6D6D6",
"9	g #D0D0D0",
"0	g #989898",
"a	g #A0A0A0",
"b	g #DDDDDD",
"c	g #E0E0E0",
"d	g #DBDBDB",
"e	g #D7D7D7",
"f	g #D2D2D2",
"g	g #979797",
"h	g #9F9F9F",
"i	g #DCDCDC",
"j	g #CECECE",
"k	g #CACACA",
"l	g #D9D9D9",
"m	g #C9C9C9",
"n	g #C8C8C8",
"o	g #9B9B9B",
"p	g #999999",
"q	g #929292",
"          .+@+#       ",
"         $%%%%%&      ",
"        *%%#=-%%*     ",
"        ;%>   ,%'     ",
"       &)!~    {)&    ",
"       -]^/    $]-    ",
"       (@_(    -:(    ",
"      _<[[[['[[[[<'   ",
"      }%%%%%%%%%%%(   ",
"      |%%%%%%%%%%:1   ",
"      23333333345'6   ",
"      7!!!!!!!@8[90   ",
"      abc@@d5e'f+{g   ",
"      h@@i5^8[_j<kg   ",
"      a@dle'f+{<mng   ",
"      ogooopp00ggqo   "};
