/* XPM */
static const char *protected_disabled_xpm[] = {
/* columns rows colors chars-per-pixel */
"16 16 13 1",
"  c opaque",
". c gray19",
"X c #400000",
"o c #404000",
"O c #585858",
"+ c #808000",
"@ c #c0c000",
"# c #808080",
"$ c #a0a0a0",
"% c #ffdca8",
"& c #c3c3c3",
"* c gainsboro",
"= c white",
/* pixels */
"======OOOO======",
"=====O*$$$.=====",
"====O&O..O$O====",
"====O$.==O#.====",
"====O#.==O#.====",
"====OO ==O# ====",
"===O... oo...===",
"==O++$&&*&@+O ==",
"==O+%%@@+@++O ==",
"==.+=%@@@+++O ==",
"==.&=**&&$$$O ==",
"==.&=**&&&$$O ==",
"== $=**&&$$$O ==",
"== &=**&&$$+O ==",
"== +%%@@+@++O ==",
"=== .oo...X. ==="
};
