/* XPM */
static const char * protected_xpm[] = {
"22 16 14 1",
" 	c None",
".	c #585858",
"X	c gainsboro",
"o	c #A0A0A0",
"O	c gray19",
"+	c #C3C3C3",
"@	c #808080",
"#	c #D19500",
"$	c #404000",
"%	c #808000",
"&	c #C0C000",
"*	c #FFDCA8",
"=	c white",
"-	c #400000",
"           ....       ",
"          .XoooO      ",
"         .+.OO.o.     ",
"         .oO  .@O     ",
"         .@O  .@O     ",
"         ..#  .@#     ",
"        .OOO#$$OOO    ",
"       .%%o++X+&%.#   ",
"       .%**&&%&%%.#   ",
"       O%=*&&&%%%.#   ",
"       O+=XX++ooo.#   ",
"       O+=XX+++oo.#   ",
"       #o=XX++ooo.#   ",
"       #+=XX++oo%.#   ",
"       #%**&&%&%%.#   ",
"        #O$$OOO-O#    "};
