/* XPM */
static const char * protected_xpm[] = {
"22 16 97 2",
"  	c None",
". 	c #B0B1C2",
"+ 	c #B1B2C3",
"@ 	c #C5C5D2",
"# 	c #AAAABD",
"$ 	c #A2A3B7",
"% 	c #F0F0F3",
"& 	c #FBFBFB",
"* 	c #F5F5F5",
"= 	c #F9F9F9",
"- 	c #9393AA",
"; 	c #F7F7F9",
"> 	c #EBEBED",
", 	c #A2A3B5",
"' 	c #9394AA",
") 	c #9D9EB0",
"! 	c #DEDEE0",
"~ 	c #B8B8C7",
"{ 	c #9697AC",
"] 	c #898AA0",
"^ 	c #E2E2E2",
"/ 	c #B2B2C2",
"( 	c #D8D9E1",
"_ 	c #CECED4",
": 	c #A9A9BB",
"< 	c #AEAEB6",
"[ 	c #ADADBE",
"} 	c #D1D1DA",
"| 	c #BCBCC4",
"1 	c #9FA0A8",
"2 	c #C5C5CE",
"3 	c #B3B4BC",
"4 	c #9D9EA6",
"5 	c #E3B97A",
"6 	c #DDA039",
"7 	c #E2AE48",
"8 	c #E6C088",
"9 	c #C9953F",
"0 	c #FAF46E",
"a 	c #F9F356",
"b 	c #F9EF5B",
"c 	c #C98C2F",
"d 	c #B88A45",
"e 	c #F8E339",
"f 	c #F8BA28",
"g 	c #B77826",
"h 	c #A47943",
"i 	c #F8D533",
"j 	c #F8D332",
"k 	c #F8B224",
"l 	c #F8A51F",
"m 	c #A36725",
"n 	c #966C42",
"o 	c #F8C72D",
"p 	c #F8BD29",
"q 	c #F8AA21",
"r 	c #F8A31E",
"s 	c #F89E1C",
"t 	c #955A23",
"u 	c #966A41",
"v 	c #F8B827",
"w 	c #F8B626",
"x 	c #F8AB21",
"y 	c #F8A61F",
"z 	c #F8A11D",
"A 	c #F89C1B",
"B 	c #F89619",
"C 	c #955822",
"D 	c #966841",
"E 	c #F8BC29",
"F 	c #F8B727",
"G 	c #F8B225",
"H 	c #F8AD22",
"I 	c #F8A820",
"J 	c #F8991A",
"K 	c #F89418",
"L 	c #F88F16",
"M 	c #955622",
"N 	c #966B42",
"O 	c #F8BC2E",
"P 	c #F8B526",
"Q 	c #F8B024",
"R 	c #F8AB22",
"S 	c #F89719",
"T 	c #F89217",
"U 	c #F88D15",
"V 	c #F88813",
"W 	c #955421",
"X 	c #8E674F",
"Y 	c #8D5C2D",
"Z 	c #955F25",
"` 	c #955E25",
" .	c #955D24",
"..	c #955B24",
"+.	c #955923",
"@.	c #955521",
"#.	c #8D5022",
"                    . + @ + #               ",
"                  $ % & * = % $             ",
"                - ; > , ' ) ! ; -           ",
"                ~ * {       ] ^ ~           ",
"              / ( _ :         < ( /         ",
"              [ } | [         1 } [         ",
"              : 2 3 :         4 2 :         ",
"            5 6 7 7 7 7 7 7 7 7 7 6 8       ",
"            9 0 a a a a a a a a a b c       ",
"            d e e e e e e e e e e f g       ",
"            h i i i i i i i i j k l m       ",
"            n o o o o o o o p q r s t       ",
"            u v p p f w k x y z A B C       ",
"            D p E F G H I r s J K L M       ",
"            N O P Q R y z A S T U V W       ",
"            X Y Z `  ...t +.C M @.#.X       "};
