/* XPM */
static const char * recycle_xpm[] = {
"20 20 51 1",
" 	c None",
".	c #449944",
"+	c #9EDB90",
"@	c #96D886",
"#	c #08611F",
"$	c #75D369",
"%	c #A5DE98",
"&	c #9CDA8E",
"*	c #94D783",
"=	c #8CD379",
"-	c #99D977",
";	c #A3DD95",
">	c #9AD98B",
",	c #92D681",
"'	c #054414",
")	c #A0DC93",
"!	c #98D889",
"~	c #90D57E",
"{	c #8ED47C",
"]	c #95D975",
"^	c #90D873",
"/	c #8AD277",
"(	c #86D071",
"_	c #92D874",
":	c #8ED771",
"<	c #89D66F",
"[	c #84D56D",
"}	c #075E1E",
"|	c #8BD770",
"1	c #86D66E",
"2	c #82D56B",
"3	c #7DD469",
"4	c #065B1C",
"5	c #7FD56A",
"6	c #7BD468",
"7	c #76D365",
"8	c #71D263",
"9	c #05581B",
"0	c #78D367",
"a	c #73D264",
"b	c #6FD162",
"c	c #6AD15F",
"d	c #6CD161",
"e	c #68D05E",
"f	c #63CF5C",
"g	c #65D05D",
"h	c #60CF5B",
"i	c #5CCE58",
"j	c #5ECE59",
"k	c #59CD57",
"l	c #54CD54",
"                    ",
"                    ",
"        ....        ",
"      ..+@#$..      ",
"     .%&*=##--.     ",
"    .;>,#####--'    ",
"   .)!~#######--'   ",
"   .@{########--'   ",
"  .*=########-]^#'  ",
"  ./(####-##_:<[}'  ",
"  .(####-]#|123#4'  ",
"  .(###_:<[5678}9'  ",
"   .##|1230abc#4'   ",
"   .##5678def#}9'   ",
"    .##bcghi##4'    ",
"     '##jk###}'     ",
"      ''#l##''      ",
"        ''''        ",
"                    ",
"                    "};
