/* XPM */
static const char * sel_autoupdate_xpm[] = {
/* columns rows colors chars-per-pixel */
"22 16 36 1",
" 	c None",
".	c #fefefe",
"X	c #f4f4f4",
"o	c #c9dab2",
"O	c #a0bf75",
"+	c #7fa944",
"@	c #699b23",
"#	c #9cba71",
"$	c #c1d1aa",
"%	c #ecf1e6",
"&	c #aac584",
"*	c gray92",
"=	c #cbcbcb",
"-	c #7ca83f",
";	c #b1cb8d",
":	c #dde9ce",
">	c #e4e4e4",
",	c #dadada",
"<	c black",
"1	c gray84",
"2	c #353535",
"3	c white",
"4	c #bcbcbc",
"5	c #8ab055",
"6	c gray17",
"7	c #7b7b7b",
"8	c #555555",
"9	c gray70",
"0	c gray64",
"q	c #222222",
"w	c #838383",
"e	c #c6c6c6",
"r	c #606060",
"t	c gray68",
"y	c #d6dbd0",
"u	c #939393",
/* pixels */
"                      ",
"          ..XXXX      ",
"        .XoO+@+#$X    ",
"       .%&@@@@@@*=*   ",
"..    ..&@-;:.:..>,*  ",
".<.   .o@-o......<1,  ",
".<<. ..#@;......<<2=* ",
".<3<..@@@@@@@..<<<<4> ",
".<33<.5@@@@@..<<<<<6, ",
".<333<*@@@@..<<<<<<<, ",
".<333<X5@@......7<89, ",
".<33<..*@......0q<w4  ",
".<3<. .>*..e.e7q<rt=  ",
".<<.   Xy><<<<<<r04   ",
".<.     *u8q<68wt4    ",
"..        ,=4994      "};
