/* XPM */
static const char *taboo_xpm[]={
"20 20 4 1",
"  c None",
"# c #c00000",
"a c #ff0000",
"b c #ffffff",
"                    ",
"                    ",
"                    ",
"      #######       ",
"     #aaaaaa##      ",
"    #aaaaaaaaa#     ",
"   #aaaaaaaaaaa#    ",
"  #aaaaaaaaaaaaa#   ",
"  #aaaaaaaaaaaaa#   ",
"  #abbbbbbbbbbba#   ",
"  #abbbbbbbbbbba#   ",
"  #abbbbbbbbbbba#   ",
"  #aaaaaaaaaaaaa#   ",
"  #aaaaaaaaaaaaa#   ",
"   #aaaaaaaaaaa#    ",
"    #aaaaaaaaa#     ",
"     ##aaaaaa#      ",
"      #######       ",
"                    ",
"                    "};
