/* XPM */
static const char *taboo_xpm[] = {
/* columns rows colors chars-per-pixel */
"22 16 27 1",
"  c #000100",
". c #060805",
"X c #070c08",
"o c #0b0d0a",
"O c #10120f",
"+ c #141814",
"@ c #1c1e1b",
"# c #1d221e",
"$ c #7b7b7b",
"% c #a50000",
"& c #c14f4f",
"* c #848484",
"= c #909090",
"- c #9a9a9a",
"; c #a5a5a5",
": c #aaaaaa",
"> c gray75",
", c gray78",
"< c #cdcdcd",
"1 c gray83",
"2 c #dcdcdc",
"3 c #eed0d0",
"4 c gray89",
"5 c #ebebeb",
"6 c #f2f2f2",
"7 c #fefefe",
"8 c None",
/* pixels */
"8888877777777777777778",
"888887 @  o  . .  oO78",
"888887.777552224567 78",
"888887 766557742<25 78",
"888887 7553&%%&31>1 7 ",
"888887 653%%%%%%3>> 7 ",
"888887 56&%%%%%%&1; 7 ",
"888887 47%%7777%%6= 7 ",
"888887.26%%7777%%5* 7 ",
"888887 24&%%%%%%&,* 7 ",
"888887 223%%%%%%3-= 7 ",
"888887 5<13&%%&3:$; 7 ",
"888887X62>>165,-$-> 7 ",
"888887 761>;=**=;>2 7 ",
"888887 #   .      + 78",
"8888877777777777777778"
};
