/* XPM */
static const char *taboo_disabled_xpm[] = {
/* columns rows colors chars-per-pixel */
"22 16 18 1",
"  c black",
". c #7b7b7b",
"X c #848484",
"o c #969696",
"O c gray60",
"+ c #a0a0a0",
"@ c #aaaaaa",
"# c #b7b7b7",
"$ c gray75",
"% c gray78",
"& c #cdcdcd",
"* c gray83",
"= c #dcdcdc",
"- c gray89",
"; c #ebebeb",
": c #f2f2f2",
"> c #fefefe",
", c None",
/* pixels */
",,,,,>>>>>>>>>>>>>>>>,",
",,,,,>+++++O++++++++>,",
",,,,,>O>>>:;-==-;:>+>,",
",,,,,>+>:;;;>>;*&=;O>,",
",,,,,>+>;;;#oo#;*$*+> ",
",,,,,>O:;:oooooo;$$+> ",
",,,,,>+;;#oooooo#*++> ",
",,,,,>+->oo>>>>oo:o+> ",
",,,,,>O-:oo>>>>oo:X+> ",
",,,,,>+-;#oooooo#%X+> ",
",,,,,>+-*;oooooo;oo+> ",
",,,,,>O;&*;#oo#:@.++> ",
",,,,,>+;=$%*:;%o.O%+> ",
",,,,,>+>;*$+oXXo+$*+> ",
",,,,,>++++++++O+++++>,",
",,,,,>>>>>>>>>>>>>>>>,"
};
