/* XPM */
static const char *trashcan_xpm[] = {
/* columns rows colors chars-per-pixel */
"20 20 12 1",
"  c None",
"* c black",
". c #585858",
"X c #00c0c0",
"o c #808000",
"O c #ffa858",
"+ c #c0c000",
"@ c #808080",
"# c #a0a0a0",
"$ c #c3c3c3",
"% c gainsboro",
"& c #ffffc0",
/* pixels */
"                    ",
"                    ",
"    **  **          ",
"   * &**XX****      ",
"  * &&$$$$++*&*     ",
"   *&+#**OO*&&&*    ",
"    *o#*$$.*+&*     ",
"    *#.*@@@...*     ",
"    *#%%$#@@@.*     ",
"    *# #%@#.@.*     ",
"    *# #%@#.@.*     ",
"    *# #%@#.@.*     ",
"    *# #%@#.@.*     ",
"    *# #%@#.@.*     ",
"    *# #%@#.@.*     ",
"    *% #%@#.@.*     ",
"     **%%##.**      ",
"       *****        ",
"                    ",
"                    "
};
