/* XPM */
static const char *update_disabled_xpm[] = {
/* columns rows colors chars-per-pixel */
"22 16 17 1",
"  c gray50",
". c #818181",
"X c gray56",
"o c #939393",
"O c #9a9a9a",
"+ c #aeaeae",
"@ c gray69",
"# c #bababa",
"$ c #c0c0c0",
"% c #cacaca",
"& c #d3d3d3",
"* c #dcdcdc",
"= c #e3e3e3",
"- c #ececec",
"; c #f4f4f4",
": c #fefefe",
"> c None",
/* pixels */
">>>>>>>>>>>>>>>>>>>>>>",
">>>>>>>>>>::;:;:>>>>>>",
">>>>>>>>::=%#+#%*:>>>>",
">>>>>>>:;&++++++;=;>>>",
">>>>>>::&+#&-:-::;=:>>",
">>>>>>:=+#=:::::: -->>",
">>>>>::%+&::::::  O=;>",
">>>>>:+++++++::    *;>",
">>>>>:$+++++::     o->",
">>>>>::++++::       ->",
">>>>>:;#++::::::# +*->",
">>>>>>:;+::::::&o #*>>",
">>>>>>:;;::=:=#X +*=>>",
">>>>>>>:=;      +%*>>>",
">>>>>>>>;%+X o+$&=>>>>",
">>>>>>>>>>-==&**>>>>>>"
};
