/* XPM */
static const char * arrow_down_xpm[] = {
"15 16 64 1",
" 	c None",
".	c #959695",
"+	c #8F8F8F",
"@	c #898989",
"#	c #838382",
"$	c #7D7D7D",
"%	c #767677",
"&	c #707070",
"*	c #6A6A6A",
"=	c #646364",
"-	c #5E5E5E",
";	c #575758",
">	c #959595",
",	c #8E8F8F",
"'	c #828382",
")	c #7C7C7C",
"!	c #767676",
"~	c #646463",
"{	c #5D5D5E",
"]	c #575857",
"^	c #515151",
"/	c #4B4B4B",
"(	c #8E8F8E",
"_	c #888988",
":	c #828282",
"<	c #7B7C7C",
"[	c #767575",
"}	c #6F706F",
"|	c #696969",
"1	c #636363",
"2	c #5D5D5D",
"3	c #575757",
"4	c #4A4A4B",
"5	c #444444",
"6	c #828182",
"7	c #7C7C7B",
"8	c #757576",
"9	c #706F6F",
"0	c #626362",
"a	c #5C5C5D",
"b	c #565756",
"c	c #505050",
"d	c #4A4B4A",
"e	c #757575",
"f	c #6F6F6F",
"g	c #696968",
"h	c #626262",
"i	c #5C5D5D",
"j	c #565656",
"k	c #49494A",
"l	c #434344",
"m	c #686868",
"n	c #5C5C5C",
"o	c #565655",
"p	c #4F4F50",
"q	c #4A494A",
"r	c #434343",
"s	c #5B5C5C",
"t	c #555555",
"u	c #4F4F4F",
"v	c #494949",
"w	c #4E4E4E",
"x	c #484948",
"y	c #424243",
"               ",
"               ",
"               ",
"               ",
"               ",
"  .+@#$%&*=-;  ",
" >,@')!&*~{]^/ ",
" (_:<[}|123^45 ",
"  6789|0abcd5  ",
"   efghijckl   ",
"    mhnopqr    ",
"     stuvr     ",
"      wxy      ",
"               ",
"               ",
"               "};
