/* XPM */
static const char * arrow_up_xpm[] = {
"15 16 71 1",
" 	c None",
".	c #89898A",
"+	c #838483",
"@	c #7D7E7D",
"#	c #888989",
"$	c #828382",
"%	c #7C7D7C",
"&	c #777777",
"*	c #717070",
"=	c #888988",
"-	c #828282",
";	c #7C7C7C",
">	c #767676",
",	c #707070",
"'	c #6A6A6A",
")	c #636464",
"!	c #888887",
"~	c #7B7C7B",
"{	c #767675",
"]	c #6F6F70",
"^	c #696969",
"/	c #636363",
"(	c #5D5D5D",
"_	c #575657",
":	c #878786",
"<	c #818180",
"[	c #7A7B7B",
"}	c #757474",
"|	c #6F6F6F",
"1	c #686868",
"2	c #626263",
"3	c #5D5C5C",
"4	c #575656",
"5	c #505050",
"6	c #4A4B4A",
"7	c #868787",
"8	c #818080",
"9	c #7A7A7A",
"0	c #747474",
"a	c #6E6E6E",
"b	c #616262",
"c	c #5B5C5C",
"d	c #565656",
"e	c #50504F",
"f	c #494949",
"g	c #434443",
"h	c #3D3D3D",
"i	c #80807F",
"j	c #797979",
"k	c #737374",
"l	c #6D6D6D",
"m	c #676767",
"n	c #616161",
"o	c #5B5B5B",
"p	c #555455",
"q	c #4F4F4E",
"r	c #484849",
"s	c #434342",
"t	c #3D3D3C",
"u	c #373736",
"v	c #737273",
"w	c #6C6D6C",
"x	c #676766",
"y	c #616160",
"z	c #5A5A5A",
"A	c #555555",
"B	c #4E4E4E",
"C	c #484848",
"D	c #424242",
"E	c #3C3C3C",
"F	c #363636",
"               ",
"               ",
"               ",
"      .+@      ",
"     #$%&*     ",
"    =-;>,')    ",
"   !-~{]^/(_   ",
"  :<[}|123456  ",
" 7890a1bcdefgh ",
" ijklmnopqrstu ",
"  vwxyzABCDEF  ",
"               ",
"               ",
"               ",
"               ",
"               "};
