/* XPM */
static const char * arrow_right_xpm[] = {
"16 15 61 1",
" 	c None",
".	c #969596",
"+	c #8F8F8F",
"@	c #969696",
"#	c #898988",
"$	c #818182",
"%	c #909090",
"&	c #898989",
"*	c #828282",
"=	c #7C7C7C",
"-	c #747575",
";	c #8A8A8A",
">	c #838283",
",	c #7B7C7C",
"'	c #757575",
")	c #6E6E6E",
"!	c #686767",
"~	c #838383",
"{	c #757576",
"]	c #6F6F6F",
"^	c #616160",
"/	c #5A5A5A",
"(	c #7C7D7D",
"_	c #686868",
":	c #626161",
"<	c #5B5B5B",
"[	c #545353",
"}	c #4D4D4D",
"|	c #767676",
"1	c #6F6F70",
"2	c #686968",
"3	c #616262",
"4	c #555554",
"5	c #464747",
"6	c #707070",
"7	c #696A69",
"8	c #636362",
"9	c #4E4E4D",
"0	c #484847",
"a	c #414140",
"b	c #6A6A6A",
"c	c #5C5C5C",
"d	c #555556",
"e	c #4E4E4F",
"f	c #484748",
"g	c #414141",
"h	c #646364",
"i	c #5C5D5C",
"j	c #555656",
"k	c #4F4F4F",
"l	c #484848",
"m	c #5D5D5D",
"n	c #575657",
"o	c #50504F",
"p	c #494948",
"q	c #424242",
"r	c #565657",
"s	c #505050",
"t	c #494949",
"u	c #494A49",
"v	c #434343",
"                ",
"      .+        ",
"     @+#$       ",
"     %&*=-      ",
"     ;>,')!     ",
"     ~={]!^/    ",
"     ({]_:<[}   ",
"     |123<4}5   ",
"     678<490a   ",
"     b8cdefg    ",
"     hijklg     ",
"     mnopq      ",
"     rstq       ",
"      uv        ",
"                "};
