/* XPM */
static const char * arrow_left_xpm[] = {
"16 15 65 1",
" 	c None",
".	c #8B8C8B",
"+	c #848484",
"@	c #7E7D7E",
"#	c #777777",
"$	c #8C8D8C",
"%	c #858685",
"&	c #7E7E7E",
"*	c #707070",
"=	c #8C8C8C",
"-	c #868685",
";	c #7F7E7F",
">	c #787777",
",	c #6A6969",
"'	c #8D8D8E",
")	c #868686",
"!	c #7F7F7F",
"~	c #787878",
"{	c #717171",
"]	c #6A6A6A",
"^	c #636363",
"/	c #8E8E8E",
"(	c #868687",
"_	c #807F7F",
":	c #797979",
"<	c #727272",
"[	c #6B6A6B",
"}	c #646463",
"|	c #5D5D5D",
"1	c #878787",
"2	c #808080",
"3	c #727273",
"4	c #6B6B6B",
"5	c #646464",
"6	c #5D5D5E",
"7	c #565656",
"8	c #818180",
"9	c #7A7979",
"0	c #6C6B6C",
"a	c #5E5E5D",
"b	c #575657",
"c	c #505050",
"d	c #747373",
"e	c #6C6C6C",
"f	c #656565",
"g	c #5E5E5E",
"h	c #575757",
"i	c #494949",
"j	c #666665",
"k	c #5E5F5F",
"l	c #575758",
"m	c #515150",
"n	c #494A49",
"o	c #434243",
"p	c #585858",
"q	c #515151",
"r	c #4A4A4A",
"s	c #434343",
"t	c #3C3C3C",
"u	c #4A4B4B",
"v	c #444344",
"w	c #3C3D3D",
"x	c #353635",
"y	c #3D3D3D",
"z	c #363636",
"                ",
"        .+      ",
"       .+@#     ",
"      $%&#*     ",
"     =-;>*,     ",
"    ')!~{]^     ",
"   /(_:<[}|     ",
"   12:34567     ",
"   89<05abc     ",
"    defghci     ",
"     jklmno     ",
"      pqrst     ",
"       uvwx     ",
"        yz      ",
"                "};
