/* XPM */
static const char * autodel_xpm[] = {
"22 16 32 1",
" 	c None",
".	c #EDEDEC",
"+	c #EEEEEC",
"@	c #E7DFDE",
"#	c #AE5251",
"$	c #E3D4D2",
"%	c #E7DAD8",
"&	c #AD5151",
"*	c #E7DBD9",
"=	c #A94645",
"-	c #8C0000",
";	c #9A2221",
">	c #9D2A2A",
",	c #A33838",
"'	c #DDC4C2",
")	c #941413",
"!	c #9D2929",
"~	c #920E0E",
"{	c #D9BBB9",
"]	c #EDEDEB",
"^	c #9C2727",
"/	c #991F1F",
"(	c #941313",
"_	c #A74343",
":	c #A23535",
"<	c #E0CCCB",
"[	c #9C2828",
"}	c #EEEDEB",
"|	c #EDECEA",
"1	c #EFEFEC",
"2	c #EEEEEB",
"3	c #EEECEB",
"                      ",
"          .    +      ",
"         @#$  %&*     ",
"        +=-;$*>-,+    ",
"         ')-;!-~{+    ",
"         ]')--~{+     ",
"          *^--/$      ",
"         %>-~(-;$     ",
"        +_-~{')-:+    ",
"         <[{] '^'     ",
"          }+   |      ",
"        11  11  11    ",
"       +&&++&&++&&+   ",
"       2::22::22::2   ",
"        33  33  33    ",
"                      "};
