/* XPM */
static const char * autoinstall_xpm[] = {
"22 16 37 1",
" 	c None",
".	c #EEEEEB",
"+	c #EBECE9",
"@	c #A8C69E",
"#	c #EDEDEC",
"$	c #EFEFEB",
"%	c #E8EBE5",
"&	c #629D4F",
"*	c #217808",
"=	c #87B37A",
"-	c #EFEFEC",
";	c #D6E0D1",
">	c #EEEEEC",
",	c #E3E7E0",
"'	c #569642",
")	c #B6CEAD",
"!	c #EEEEED",
"~	c #B3CCAA",
"{	c #267B0E",
"]	c #89B47C",
"^	c #4A9035",
"/	c #7BAC6D",
"(	c #EDEDEB",
"_	c #C1D4BA",
":	c #287C10",
"<	c #E1E7DF",
"[	c #4F923B",
"}	c #227909",
"|	c #97BC8B",
"1	c #E4E8E1",
"2	c #579745",
"3	c #247A0C",
"4	c #A3C399",
"5	c #EBECEA",
"6	c #C0D4B9",
"7	c #CFDCC9",
"8	c #5A9948",
"                      ",
"              .       ",
"             +@#      ",
"         $  %&*=-     ",
"        -;>,'***)!    ",
"       -~{]^***/(     ",
"      ._:*****]>      ",
"       <[***}|>       ",
"        12*34!        ",
"         567!         ",
"      ##  ##  ##      ",
"     #88##88##88#     ",
"     #88##88##88#     ",
"      ##  ##  ##      ",
"                      ",
"                      "};
