/* XPM */
static const char * autoinstall_disabled_xpm[] = {
"22 16 31 1",
" 	c None",
".	c #EEEEEE",
"+	c #EBEBEB",
"@	c #B9B9B9",
"#	c #EDEDED",
"$	c #EFEFEF",
"%	c #E9E9E9",
"&	c #838383",
"*	c #525252",
"=	c #A0A0A0",
"-	c #DBDBDB",
";	c #E5E5E5",
">	c #7A7A7A",
",	c #C3C3C3",
"'	c #C1C1C1",
")	c #565656",
"!	c #A1A1A1",
"~	c #717171",
"{	c #969696",
"]	c #CBCBCB",
"^	c #575757",
"/	c #E4E4E4",
"(	c #747474",
"_	c #535353",
":	c #ACACAC",
"<	c #E6E6E6",
"[	c #7B7B7B",
"}	c #545454",
"|	c #B5B5B5",
"1	c #D6D6D6",
"2	c #7D7D7D",
"                      ",
"              .       ",
"             +@#      ",
"         $  %&*=$     ",
"        $-.;>***,.    ",
"       $')!~***{#     ",
"      .]^*****!.      ",
"       /(***_:.       ",
"        <[*}|.        ",
"         +]1.         ",
"      ##  ##  ##      ",
"     #22##22##22#     ",
"     #22##22##22#     ",
"      ##  ##  ##      ",
"                      ",
"                      "};
