/* XPM */
static const char * autodel_disabled_xpm[] = {
"22 16 25 1",
" 	c None",
".	c #EDEDED",
"+	c #EEEEEE",
"@	c #E1E1E1",
"#	c #6D6D6D",
"$	c #D8D8D8",
"%	c #DEDEDE",
"&	c #646464",
"*	c #2A2A2A",
"=	c #464646",
"-	c #4D4D4D",
";	c #585858",
">	c #CBCBCB",
",	c #3A3A3A",
"'	c #4C4C4C",
")	c #363636",
"!	c #C4C4C4",
"~	c #4A4A4A",
"{	c #444444",
"]	c #616161",
"^	c #565656",
"/	c #D2D2D2",
"(	c #4B4B4B",
"_	c #ECECEC",
":	c #EFEFEF",
"                      ",
"          .    +      ",
"         @#$  %#%     ",
"        +&*=$%-*;+    ",
"         >,*='*)!+    ",
"         .>,**)!+     ",
"          %~**{$      ",
"         %-*),*=$     ",
"        +]*)!>,*^+    ",
"         /(!. >~>     ",
"          .+   _      ",
"        ::  ::  ::    ",
"       +##++##++##+   ",
"       +^^++^^++^^+   ",
"        __  __  __    ",
"                      "};
