/* XPM */
static const char *broken_xpm[] = {
/* columns rows colors chars-per-pixel */
"16 16 28 1",
"  c #8C0000",
". c #920F0F",
"X c #961818",
"o c #A23535",
"O c #A43A39",
"+ c #A53C3B",
"@ c #A74242",
"# c #AC4F4F",
"$ c #AD5151",
"% c #C7908F",
"& c #C89392",
"* c #CA9796",
"= c #D6B3B2",
"- c #D6B5B4",
"; c #DFCBCA",
": c #E0CDCB",
"> c #E1CECD",
", c #E3D4D2",
"< c #E9E1E0",
"1 c #EAE6E4",
"2 c #EBE8E6",
"3 c #ECEAE8",
"4 c #EDECEA",
"5 c #EEECEB",
"6 c #EEEEEB",
"7 c #EEEEEC",
"8 c #EFEFEC",
"9 c None",
/* pixels */
"9999999999999999",
"9999999999999999",
"9999999999999999",
"9999999999999999",
"9999769999769999",
"9998@@7998$o5999",
"9998@@7998$o5999",
"9999769999769999",
"999997;%%;799999",
"9999<+    +<9999",
"9992O .##. O1999",
"999- X>77>X =999",
"9994&:9999,*3999",
"9999999999999999",
"9999999999999999",
"9999999999999999"
};
