/* XPM */
static const char * del_xpm[] = {
"22 16 9 1",
" 	c None",
".	c #EEEEEC",
"+	c #EEEDEB",
"@	c #BD7776",
"#	c #B25B5A",
"$	c #EDECEA",
"%	c #8C0000",
"&	c #ECEAE8",
"*	c #9A2120",
"                      ",
"        .+     +.     ",
"       .@#$   $#@.    ",
"      .@%%#$ $#%%@.   ",
"      +#%%%#&#%%%#+   ",
"       $#%%%*%%%#$    ",
"        $#%%%%%#$     ",
"         &*%%%*&      ",
"        $#%%%%%#$     ",
"       $#%%%*%%%#$    ",
"      +#%%%#&#%%%#+   ",
"      .@%%#$ $#%%@.   ",
"       .@#$   $#@.    ",
"        .+     +.     ",
"                      ",
"                      "};
