/* XPM */
static const char * delete_conflict_xpm[] = {
"23 23 161 2",
"  	c None",
". 	c #FFFFFF",
"+ 	c #939393",
"@ 	c #797979",
"# 	c #CDCDCD",
"$ 	c #818181",
"% 	c #626262",
"& 	c #E5E5E5",
"* 	c #2A2A2A",
"= 	c #676767",
"- 	c #A2A2A2",
"; 	c #D6D6D6",
"> 	c #565656",
", 	c #737373",
"' 	c #ACACAC",
") 	c #E0E0E0",
"! 	c #9F9F9F",
"~ 	c #000000",
"{ 	c #545454",
"] 	c #A4A4A4",
"^ 	c #606060",
"/ 	c #2F2F2F",
"( 	c #575757",
"_ 	c #D4D4D4",
": 	c #C2C2C2",
"< 	c #C3C3C3",
"[ 	c #C5C5C5",
"} 	c #BABABA",
"| 	c #C8C8C8",
"1 	c #B8B8B8",
"2 	c #817D76",
"3 	c #DD9107",
"4 	c #FEBD09",
"5 	c #E4E4E4",
"6 	c #C1C1C1",
"7 	c #CCCCCC",
"8 	c #989898",
"9 	c #474747",
"0 	c #C58417",
"a 	c #FFFFA1",
"b 	c #FFFF7F",
"c 	c #FFFF26",
"d 	c #FFFF2A",
"e 	c #C87A00",
"f 	c #D8D8D8",
"g 	c #A1A1A1",
"h 	c #656565",
"i 	c #585858",
"j 	c #FBDB60",
"k 	c #FFFFD7",
"l 	c #FFFF79",
"m 	c #FFFF24",
"n 	c #FFFF15",
"o 	c #862E2D",
"p 	c #5F5F5F",
"q 	c #919191",
"r 	c #373737",
"s 	c #727272",
"t 	c #353535",
"u 	c #242424",
"v 	c #734915",
"w 	c #FFFDCC",
"x 	c #FFFFC0",
"y 	c #FFFF1E",
"z 	c #C97902",
"A 	c #C4C4C4",
"B 	c #696969",
"C 	c #969696",
"D 	c #494949",
"E 	c #3A3A3A",
"F 	c #ECA01C",
"G 	c #FFFFDB",
"H 	c #FFFF93",
"I 	c #FFFF23",
"J 	c #FFE012",
"K 	c #909090",
"L 	c #878787",
"M 	c #72563C",
"N 	c #F9E530",
"O 	c #FFFFC8",
"P 	c #FFFF4A",
"Q 	c #EAAF0E",
"R 	c #FFA108",
"S 	c #8F8F8F",
"T 	c #7A7A7A",
"U 	c #F4F4F4",
"V 	c #616161",
"W 	c #A7A7A7",
"X 	c #EF8801",
"Y 	c #FFFF3B",
"Z 	c #FFFF5C",
"` 	c #FFFF49",
" .	c #FCF545",
"..	c #FFFF89",
"+.	c #FFFF4C",
"@.	c #FFFF27",
"#.	c #AC4A02",
"$.	c #555555",
"%.	c #A8A8A8",
"&.	c #815D36",
"*.	c #381E1E",
"=.	c #110000",
"-.	c #FFECB4",
";.	c #FFFFA7",
">.	c #FFE918",
",.	c #FFFF21",
"'.	c #FFA00A",
").	c #8C8C8C",
"!.	c #6F6F6F",
"~.	c #9C9C9C",
"{.	c #303030",
"].	c #E49C5E",
"^.	c #FFFFD1",
"/.	c #FFF7B6",
"(.	c #FFFF1B",
"_.	c #FFE514",
":.	c #E1E1E1",
"<.	c #707070",
"[.	c #822A00",
"}.	c #FFF5A5",
"|.	c #FFFCD0",
"1.	c #FFE840",
"2.	c #FFF415",
"3.	c #B52A00",
"4.	c #AAAAAA",
"5.	c #343434",
"6.	c #B3B3B3",
"7.	c #A6A6A6",
"8.	c #686868",
"9.	c #2C201B",
"0.	c #FBB30C",
"a.	c #FFFF91",
"b.	c #FFF3A3",
"c.	c #FFD512",
"d.	c #FED213",
"e.	c #FFEA15",
"f.	c #FFFF16",
"g.	c #9A2E00",
"h.	c #BCBCBC",
"i.	c #595959",
"j.	c #414141",
"k.	c #5A5A5A",
"l.	c #BA6807",
"m.	c #873E02",
"n.	c #FFE110",
"o.	c #FFD00F",
"p.	c #D45F03",
"q.	c #FFDE0F",
"r.	c #FFE510",
"s.	c #FF8F05",
"t.	c #CA5C03",
"u.	c #FFDE0E",
"v.	c #FFC408",
"w.	c #FFCA09",
"x.	c #FFDC09",
"y.	c #FFE205",
"z.	c #E65C00",
"A.	c #F89801",
"B.	c #FF9801",
"C.	c #FFAE00",
"D.	c #E95E00",
"        . . . + @ . . .                       ",
"    . . # $ % . & * = - . .                   ",
"  . ; > , ' ) ! ~ { ] ^ / ; . . .             ",
"  . ( . . _ : < [ } | 1 2 3 3 3 4 .           ",
"  . ( 5 6 . . . . 7 8 9 0 a b c d e .         ",
"    f > ! ) ) ! g $ h i j k l m n o .         ",
"    . ( p q r s 9 t u v w x y c z .           ",
"    . ( - A B C B D E F G H I J o . . .       ",
"    . > K . ! [ $ L M N O P m Q 3 3 3 R .     ",
"    . > S . T U V W X Y Z `  ...+.m @.#..     ",
"    . $.S . T . V %.&.*.=.o -.;.>.,.'.o .     ",
"    . $.S . ).U !.~.i {.~ ].^./.(._.o .       ",
"    . > 5 . ! :.<.$ i / [.}.|.1.2.3.o .       ",
"    . 4.5.T 6.& ] 7.8.9.0.a.b.c.d.e.f.g..     ",
"      . h.i.5.~ ~ j.k.o l.m.o n.o.n p.o .     ",
"        . . . . . . . . . . o q.r.s.o .       ",
"                          . t.u.v.o .         ",
"                        . o w.x.o .           ",
"                        . t.y.z.o .           ",
"                        . A.B.o .             ",
"                      . [.C.o .               ",
"                      . D.o .                 ",
"                        . .                   "};
