/* XPM */
static const char * downgrade_xpm[] = {
"22 16 48 1",
" 	c None",
".	c #EEEEEC",
"+	c #E35302",
"@	c #E89566",
"#	c #EEECE9",
"$	c #E68148",
"%	c #EDE6E0",
"&	c #E5702E",
"*	c #EDDDD3",
"=	c #E4631B",
"-	c #ECD1C0",
";	c #E45A0D",
">	c #E9EBE7",
",	c #EBC0A6",
"'	c #E35505",
")	c #B4CDAC",
"!	c #398623",
"~	c #CCDBC6",
"{	c #E9AC88",
"]	c #A7C59D",
"^	c #257A0C",
"/	c #217808",
"(	c #36841F",
"_	c #D3DECE",
":	c #E3E8DF",
"<	c #68A157",
"[	c #D6E0D1",
"}	c #99BD8D",
"|	c #23790A",
"1	c #3A8624",
"2	c #D0DDCB",
"3	c #E7EAE4",
"4	c #53953F",
"5	c #2E7F16",
"6	c #428B2D",
"7	c #D7E1D3",
"8	c #BCD1B5",
"9	c #267B0D",
"0	c #4C9137",
"a	c #DFE5DB",
"b	c #B7CFAF",
"c	c #2A7D12",
"d	c #569743",
"e	c #E4E8E1",
"f	c #C5D6BE",
"g	c #69A158",
"h	c #7CAC6D",
"i	c #E8EBE5",
"       .++++.         ",
"       .++++.         ",
"       .++++.         ",
"    ....++++.....     ",
"    @++++++++++@.     ",
"    #$++++++++$#      ",
"     %&++++++&%       ",
"      *=++++=*        ",
"       -;++;-   .>.   ",
"       .,'',.  .)!~.  ",
"        .{{.. .]^/(_  ",
"         ..:<[}|//12  ",
"          34/5///67   ",
"         .89////0a    ",
"          .bc//de     ",
"           .fghi      "};
