/* XPM */
static const char * install_xpm[] = {
"22 16 17 1",
" 	c None",
".	c #EEEEEC",
"+	c #BFD3B7",
"@	c #CEDBC8",
"#	c #BED2B6",
"$	c #2B7E13",
"%	c #34831D",
"&	c #217808",
"*	c #488E33",
"=	c #EDEEEB",
"-	c #E0E6DC",
";	c #CFDCCA",
">	c #488F34",
",	c #53953F",
"'	c #33831D",
")	c #4C9138",
"!	c #4A9036",
"                      ",
"                 ..   ",
"                .+@.  ",
"               .#$%@. ",
"              .#$&&*= ",
"       .     .#$&&%@  ",
"      .-;   .#$&&%@   ",
"     .->%@ .#$&&%@    ",
"     .,&&%@#$&&%@     ",
"     .#$&&'$&&%@      ",
"      .#$&&&&%@       ",
"       .#$&&%@        ",
"        .+)!@         ",
"          ..          ",
"                      ",
"                      "};
