/* XPM */
static const char * install_disabled_xpm[] = {
"22 16 16 1",
" 	c None",
".	c #EEEEEE",
"+	c #CACACA",
"@	c #D5D5D5",
"#	c #C9C9C9",
"$	c #595959",
"%	c #606060",
"&	c #525252",
"*	c #6F6F6F",
"=	c #EDEDED",
"-	c #E3E3E3",
";	c #D6D6D6",
">	c #707070",
",	c #787878",
"'	c #737373",
")	c #717171",
"                      ",
"                 ..   ",
"                .+@.  ",
"               .#$%@. ",
"              .#$&&*= ",
"       .     .#$&&%@  ",
"      .-;   .#$&&%@   ",
"     .->%@ .#$&&%@    ",
"     .,&&%@#$&&%@     ",
"     .#$&&%$&&%@      ",
"      .#$&&&&%@       ",
"       .#$&&%@        ",
"        .+')@         ",
"          ..          ",
"                      ",
"                      "};
