/* XPM */
static const char * keepinstalled_disabled_xpm[] = {
"22 16 21 1",
" 	c None",
".	c #EEEEEC",
"+	c #2E3436",
"@	c #919494",
"#	c #989A9A",
"$	c #2F3537",
"%	c #9EA1A0",
"&	c #8E9191",
"*	c #939696",
"=	c #303638",
"-	c #A5A7A6",
";	c #EEEEED",
">	c #EDEDEC",
",	c #9C9F9F",
"'	c #32383A",
")	c #A9ACAB",
"!	c #EFEFEC",
"~	c #D7D7D6",
"{	c #EDEDEB",
"]	c #5E6263",
"^	c #A5A8A7",
"                      ",
"      ..............  ",
"      .++++++++++++.  ",
"      .++++++++++++.  ",
"      .+++++++++++@.  ",
"      .++++++++++#.   ",
"      .++++++++$%. .  ",
"      .+++&*++=-; ..  ",
"      .++&.>,')! .&.  ",
"      .++&. ;~; .&+.  ",
"      .+++&.   .&++.  ",
"      .++++&.{.&+++.  ",
"      .+++++]^]++++.  ",
"      .++++++++++++.  ",
"      ..............  ",
"                      "};
