/* XPM */
static const char *new_to_repository[] = {
/* columns rows colors chars-per-pixel */
"16 16 61 1",
"  c #E35302",
". c #E35403",
"X c #E45607",
"o c #E45708",
"O c #E3580A",
"+ c #E3590B",
"@ c #E45808",
"# c #E3590C",
"$ c #E45B0F",
"% c #E45C10",
"& c #E45E13",
"* c #E46117",
"= c #E4631B",
"- c #E4651D",
"; c #E4661F",
": c #E46B27",
"> c #E56C28",
", c #E56E2C",
"< c #E5702D",
"1 c #E67231",
"2 c #E67332",
"3 c #E57537",
"4 c #E6773A",
"5 c #E67B3D",
"6 c #E67C3F",
"7 c #E67D41",
"8 c #E67F45",
"9 c #E68147",
"0 c #E68248",
"q c #E7834A",
"w c #E7854C",
"e c #E68650",
"r c #E78852",
"t c #E78B56",
"y c #E78C57",
"u c #E78F5D",
"i c #E78F5E",
"p c #E88E5A",
"a c #E89362",
"s c #E89363",
"d c #E89869",
"f c #E9A47D",
"g c #EAB89B",
"h c #EABEA4",
"j c #EBBFA6",
"k c #EBC2AA",
"l c #EBC3AB",
"z c #EBC4AC",
"x c #EBC8B2",
"c c #EBC8B3",
"v c #ECCAB5",
"b c #EBCEBC",
"n c #EBCFBD",
"m c #ECD0BF",
"M c #EDE6DF",
"N c #EDEAE6",
"B c #EEECE9",
"V c #EEEDEA",
"C c #EEEDEB",
"Z c #EEEEEC",
"A c None",
/* pixels */
"AAAAAAAAAAAAAAAA",
"AAAAZNZAAZBZAAAA",
"AAAAZ-lZZh>ZAAAA",
"AAAAZ=#zgo,ZAAAA",
"AZZZZ* X. 2ZZZZA",
"Zx380X    $795bZ",
"ANp          sNA",
"AACa        fZAA",
"AAVi        dZAA",
"AMq          uNA",
"Zvwte+    %yr6mA",
"AZZZZ; @o <ZZZZA",
"AAAAZ=&ckO1ZAAAA",
"AAAAZ:nZZj4ZAAAA",
"AAAAZZZAAZCAAAAA",
"AAAAAAAAAAAAAAAA"
};
