<svg xmlns="http://www.w3.org/2000/svg" width="16" height="16">
<!--

Copyright (C) 2018 Stasiek Michalski <hellcp@opensuse.org>

This image is freely licensed under the terms of Creative
Commons Attribution-ShareAlike 4.0 International license.
You can read terms of the license on:
https://creativecommons.org/licenses/by-sa/4.0/legalcode

-->
  <rect fill="#ffffff" opacity="0.5" width="12" height="12" x="2" y="2" />
  <path fill="#241f31" d="M 2 0 C 0.892 0 0 0.892 0 2 L 0 14 C 0 15.108 0.892 16 2 16 L 14 16 C 15.108 16 16 15.108 16 14 L 16 5.1210938 L 16 3 L 16 2 C 16 0.892 15.108 0 14 0 L 2 0 z M 2 2 L 14 2 L 14 2.8789062 L 14 7.1210938 L 14 14 L 2 14 L 2 2 z " />
  <path d="M 5.0605469 2.9394531 L 2.9394531 5.0605469 L 5.8789062 8 L 2.9394531 10.939453 L 5.0605469 13.060547 L 8 10.121094 L 10.939453 13.060547 L 13.060547 10.939453 L 10.121094 8 L 13.060547 5.0605469 L 10.939453 2.9394531 L 8 5.8789062 L 5.0605469 2.9394531 z " fill="#241f31" />
  <path d="M 5.0605469 2.9394531 L 2.9394531 5.0605469 L 5.8789062 8 L 2.9394531 10.939453 L 5.0605469 13.060547 L 8 10.121094 L 10.939453 13.060547 L 13.060547 10.939453 L 10.121094 8 L 13.060547 5.0605469 L 10.939453 2.9394531 L 8 5.8789062 L 5.0605469 2.9394531 z " fill="#e01b24" class="error" />
</svg>
