<svg xmlns="http://www.w3.org/2000/svg" width="16" height="16">
<!--

Copyright (C) 2018 Stasiek Michalski <hellcp@opensuse.org>

This image is freely licensed under the terms of Creative
Commons Attribution-ShareAlike 4.0 International license.
You can read terms of the license on:
https://creativecommons.org/licenses/by-sa/4.0/legalcode

-->
  <rect fill="#ffffff" opacity="0.5" width="12" height="12" x="2" y="2" />
  <path d="M 2 0 C 0.892 0 0 0.892 0 2 L 0 14 C 0 15.108 0.892 16 2 16 L 14 16 C 15.108 16 16 15.108 16 14 L 16 2 C 16 0.892 15.108 0 14 0 L 2 0 z M 2 2 L 14 2 L 14 14 L 2 14 L 2 2 z M 8 3 C 6.338 3 5 4.338 5 6 L 5 8 L 4 8 L 4 13 L 12 13 L 12 8 L 11 8 L 11 6 C 11 4.338 9.662 3 8 3 z M 8 4 C 9.108 4 10 4.892 10 6 L 10 8 L 6 8 L 6 6 C 6 4.892 6.892 4 8 4 z " fill="#241f31" />
</svg>
