<svg xmlns="http://www.w3.org/2000/svg" width="16" height="16">
<!--

Copyright (C) 2018 Stasiek Michalski <hellcp@opensuse.org>

This image is freely licensed under the terms of Creative
Commons Attribution-ShareAlike 4.0 International license.
You can read terms of the license on:
https://creativecommons.org/licenses/by-sa/4.0/legalcode

-->
  <path fill="#241f31" d="M 2,16 C 0.892,16 0,15.108 0,14 V 2 C 0,0.892 0.892,0 2,0 h 12 c 1.108,0 2,0.892 2,2 v 12 c 0,1.108 -0.892,2 -2,2 z M 2,14 H 14 V 2 H 2 Z" />
  <rect fill="#ffffff" width="12" height="12" x="2" y="2" opacity="0.5" />
  <path d="M 7 2 L 7 8.5859375 L 4.7070312 6.2929688 L 3.2929688 7.7070312 L 8 12.414062 L 12.707031 7.7070312 L 11.292969 6.2929688 L 9 8.5859375 L 9 2 L 7 2 z " fill="#241f31" />
  <path d="M 7 2 L 7 8.5859375 L 4.7070312 6.2929688 L 3.2929688 7.7070312 L 8 12.414062 L 12.707031 7.7070312 L 11.292969 6.2929688 L 9 8.5859375 L 9 2 L 7 2 z " fill="#e01b24" class="error" />
</svg>
