<svg xmlns="http://www.w3.org/2000/svg" width="16" height="16">
<!--

Copyright (C) 2018 Stasiek Michalski <hellcp@opensuse.org>

This image is freely licensed under the terms of Creative
Commons Attribution-ShareAlike 4.0 International license.
You can read terms of the license on:
https://creativecommons.org/licenses/by-sa/4.0/legalcode

-->
  <path fill="#241f31" d="M 2 0 C 0.892 0 0 0.892 0 2 L 0 14 C 0 15.108 0.892 16 2 16 L 14 16 C 15.108 16 16 15.108 16 14 L 16 2 C 16 0.892 15.108 0 14 0 L 2 0 z M 2 2 L 14 2 L 14 14 L 2 14 L 2 2 z " />
  <rect fill="#ffffff" opacity="0.5" width="12" height="12" x="2" y="2" />
  <path d="M 8 3.5859375 L 3.2929688 8.2929688 L 4.7070312 9.7070312 L 7 7.4140625 L 7 14 L 9 14 L 9 7.4140625 L 11.292969 9.7070312 L 12.707031 8.2929688 L 8 3.5859375 z " fill="#241f31" />
  <path d="M 8 3.5859375 L 3.2929688 8.2929688 L 4.7070312 9.7070312 L 7 7.4140625 L 7 14 L 9 14 L 9 7.4140625 L 11.292969 9.7070312 L 12.707031 8.2929688 L 8 3.5859375 z " fill="#33d17a" class="success" />
</svg>
