<?xml version="1.0" encoding="UTF-8" standalone="no"?>
<!--

Copyright (C) 2018 Stasiek Michalski <hellcp@opensuse.org>

This image is freely licensed under the terms of Creative
Commons Attribution-ShareAlike 4.0 International license.
You can read terms of the license on:
https://creativecommons.org/licenses/by-sa/4.0/legalcode

-->
<svg
   xmlns:dc="http://purl.org/dc/elements/1.1/"
   xmlns:cc="http://creativecommons.org/ns#"
   xmlns:rdf="http://www.w3.org/1999/02/22-rdf-syntax-ns#"
   xmlns:svg="http://www.w3.org/2000/svg"
   xmlns="http://www.w3.org/2000/svg"
   id="svg4243"
   version="1.1"
   viewBox="0 0 16 16.000001"
   height="16"
   width="16">
  <defs
     id="defs4237" />
  <metadata
     id="metadata4240">
    <rdf:RDF>
      <cc:Work
         rdf:about="">
        <dc:format>image/svg+xml</dc:format>
        <dc:type
           rdf:resource="http://purl.org/dc/dcmitype/StillImage" />
        <dc:title></dc:title>
      </cc:Work>
    </rdf:RDF>
  </metadata>
  <path
     id="rect862"
     d="M 3 7 C 2.446 7 2 7.446 2 8 L 2 14 C 2 14.554 2.446 15 3 15 L 13 15 C 13.554 15 14 14.554 14 14 L 14 8 C 14 7.446 13.554 7 13 7 L 3 7 z M 8 8 C 9.108 8 10 8.892 10 10 C 10 10.74107 9.5957989 11.379048 9 11.724609 L 9 13 C 9 13.554 8.554 14 8 14 C 7.446 14 7 13.554 7 13 L 7 11.724609 C 6.4042011 11.379048 6 10.74107 6 10 C 6 8.892 6.892 8 8 8 z "
     style="opacity:1;fill:#241f31;fill-opacity:1;stroke:none;stroke-width:3;stroke-linecap:round;stroke-linejoin:round;stroke-miterlimit:4;stroke-dasharray:none;stroke-opacity:1" />
  <path
     id="rect864"
     d="M 8 1 C 5.23 1 3 3.23 3 6 L 3 7 L 5 7 L 5 6 C 5 4.338 6.338 3 8 3 C 9.662 3 11 4.338 11 6 L 11 7 L 13 7 L 13 6 C 13 3.23 10.77 1 8 1 z "
     style="opacity:1;fill:#241f31;fill-opacity:1;stroke:none;stroke-width:3;stroke-linecap:round;stroke-linejoin:round;stroke-miterlimit:4;stroke-dasharray:none;stroke-opacity:1" />
</svg>
