<svg xmlns="http://www.w3.org/2000/svg" width="16" height="16">
<!--

Copyright (C) 2018 Stasiek Michalski <hellcp@opensuse.org>

This image is freely licensed under the terms of Creative
Commons Attribution-ShareAlike 4.0 International license.
You can read terms of the license on:
https://creativecommons.org/licenses/by-sa/4.0/legalcode

-->
  <path fill="#241f31" d="M 2 0 C 0.892 0 0 0.892 0 2 L 0 14 C 0 15.108 0.892 16 2 16 L 14 16 C 15.108 16 16 15.108 16 14 L 16 2 C 16 0.892 15.108 0 14 0 L 2 0 z M 2 2 L 14 2 L 14 14 L 2 14 L 2 2 z " />
  <rect fill="#ffffff" opacity="0.5" width="12" height="12" x="2" y="2" />
  <path d="M 8 3 C 5.23 3 3 5.23 3 8 C 3 10.77 5.23 13 8 13 C 10.77 13 13 10.77 13 8 C 13 5.23 10.77 3 8 3 z M 8 5 C 8.4633777 5 8.8960791 5.1127894 9.2871094 5.2988281 L 5.2988281 9.2871094 C 5.1127894 8.8960791 5 8.4633777 5 8 C 5 6.338 6.338 5 8 5 z M 10.701172 6.7128906 C 10.887211 7.1039209 11 7.5366223 11 8 C 11 9.662 9.662 11 8 11 C 7.5366223 11 7.1039209 10.887211 6.7128906 10.701172 L 10.701172 6.7128906 z " fill="#241f31" />
  <path d="M 8 3 C 5.23 3 3 5.23 3 8 C 3 10.77 5.23 13 8 13 C 10.77 13 13 10.77 13 8 C 13 5.23 10.77 3 8 3 z M 8 5 C 8.4633777 5 8.8960791 5.1127894 9.2871094 5.2988281 L 5.2988281 9.2871094 C 5.1127894 8.8960791 5 8.4633777 5 8 C 5 6.338 6.338 5 8 5 z M 10.701172 6.7128906 C 10.887211 7.1039209 11 7.5366223 11 8 C 11 9.662 9.662 11 8 11 C 7.5366223 11 7.1039209 10.887211 6.7128906 10.701172 L 10.701172 6.7128906 z " fill="#e01b24" class="error" />
</svg>
