/* XPM */
static const char * sel_autoinstall_disabled_xpm[] = {
/* columns rows colors chars-per-pixel */
"22 16 13 1",
" 	c None",
".	c #fefefe",
"X	c #7f807f",
"o	c #8b8c8b",
"O	c gray50",
"+	c #828382",
"@	c #878887",
"#	c #eaeaea",
"$	c #f3f3f3",
"%	c gray78",
"&	c white",
"*	c gray84",
"=	c gray79",
/* pixels */
"     ................ ",
"     .XoO+@X++O+XX@@. ",
"     .@............X. ",
"     .O............X. ",
"..   .X..........OO.# ",
".O.  .X.........OOOO. ",
".OO. .X...$....OOOO.% ",
".O&O..X.OO.#$.OOOO.X* ",
".O&&O..OOOO..OOOX.%X# ",
".O&&&O..OOOOOOOO.%*X. ",
".O&&&O.#.OOOoOO.=*#X. ",
".O&&O.+$#.OOOO.%*#$X. ",
".O&O..+..#.OO.%*#..O. ",
".OO. .+..$#..%*#$..O. ",
".O.  .XoOOOXXX+XXXo+. ",
"..   .......$#....... "};
