/* XPM */
static const char * sel_autodel_xpm[] = {
/* columns rows colors chars-per-pixel */
"22 16 29 1",
" 	c None",
".	c white",
"X	c #929292",
"o	c gray48",
"O	c #cbcbcb",
"+	c gray51",
"@	c #626262",
"#	c #e2e2e2",
"$	c #2c2c2c",
"%	c #a4a4a4",
"&	c #d8d8d8",
"*	c #565656",
"=	c #717171",
"-	c #aaaaaa",
";	c #9d9d9d",
":	c black",
">	c gray35",
",	c #323232",
"<	c #c3c3c3",
"1	c gray73",
"2	c gray27",
"3	c #4b4b4b",
"4	c #6a6a6a",
"5	c #3a3a3a",
"6	c #232323",
"7	c #f4f4f4",
"8	c #8e8e8e",
"9	c gray70",
"0	c #1e1e1e",
/* pixels */
"         ...Xo...     ",
"       ..O+@.#$@%..   ",
"      .&*=-&;:*%>,&.  ",
"      .*..&<<<1O1o:.  ",
"..    .*#<....OX23:.  ",
".:.    &>%&&;%+4>:&   ",
".::.   .*>X5=2,66:.   ",
".:7:.  .>%<4X4356:.   ",
".:77:. .*X.;<+83$:.   ",
".:777:..*8.o7>->,:.   ",
".:777:..*8.o.>-*,:.   ",
".:77:. .*8.874;*$:.   ",
".:7:.  .>#.;#=+*,:.   ",
".::.   .-,o9#-%40-.   ",
".:.     .1>,::2>%.    ",
"..       ........     "};
