/* XPM */
static const char * sel_autodel_disabled_xpm[] = {
/* columns rows colors chars-per-pixel */
"22 16 18 1",
" 	c None",
".	c #fefefe",
"X	c gray80",
"o	c #bbbbbb",
"O	c #e2e2e2",
"+	c gray70",
"@	c #f1f1f1",
"#	c gray58",
"$	c #ececec",
"%	c gray67",
"&	c #d2d2d2",
"*	c gray50",
"=	c #9a9a9a",
"-	c gray86",
";	c gray64",
":	c #c3c3c3",
">	c #8e8e8e",
",	c white",
/* pixels */
"         ...Xo...     ",
"       ..Oo+.@#+X..   ",
"      .$%o&@X*%X%=$.  ",
"      .%..$-OO-O-o*.  ",
"..    .%@O....OX;;*.  ",
".*.    $%X$$XX:+%*$   ",
".**.   .%+X=o;=#>*.   ",
".*,*.  .%X-+X+;=#*.   ",
".*,,*. .%:.XO::;#*.   ",
".*,,,*..%X.o.%&%#*.   ",
".*,,,*..%:.o.+&%=*.   ",
".*,,*. .%:.:@oX%#*.   ",
".*,*.  .%@.X@o:%#*.   ",
".**.   .&=o-@XX+#&.   ",
".*.     .-%=**;%X.    ",
"..       ........     "};
