/* XPM */
static const char * select_conflict_xpm[] = {
"22 22 123 2",
"  	c None",
". 	c #FFFFFF",
"+ 	c #989898",
"@ 	c #212121",
"# 	c #000000",
"$ 	c #333333",
"% 	c #767676",
"& 	c #EEEEEE",
"* 	c #434344",
"= 	c #0C0C0C",
"- 	c #AAAAAA",
"; 	c #989899",
"> 	c #111111",
", 	c #545454",
"' 	c #DDDDDE",
") 	c #777777",
"! 	c #808080",
"~ 	c #878787",
"{ 	c #818181",
"] 	c #929292",
"^ 	c #A5A5A5",
"/ 	c #A0A0A0",
"( 	c #BEBEBE",
"_ 	c #C4C4C4",
": 	c #CBCBCB",
"< 	c #D7D7D7",
"[ 	c #B9B9B9",
"} 	c #969696",
"| 	c #9E9E9E",
"1 	c #999999",
"2 	c #8E8E8E",
"3 	c #868686",
"4 	c #F7F7F7",
"5 	c #B4B4B4",
"6 	c #A1A1A1",
"7 	c #C6C6C6",
"8 	c #D5D5D5",
"9 	c #DEDEDE",
"0 	c #E2E2E2",
"a 	c #DCDCDC",
"b 	c #2B2B2B",
"c 	c #727272",
"d 	c #C8C8C8",
"e 	c #C7C7C7",
"f 	c #A8A8A8",
"g 	c #ABABAB",
"h 	c #BABABA",
"i 	c #BDBDBD",
"j 	c #DDDDDD",
"k 	c #D6D6D6",
"l 	c #D3D3D3",
"m 	c #DFDFDF",
"n 	c #3B3B3B",
"o 	c #2C2C2C",
"p 	c #C1C1C1",
"q 	c #B1B1B1",
"r 	c #A9A9A9",
"s 	c #858585",
"t 	c #E5E5E5",
"u 	c #E8E8E8",
"v 	c #E6E6E6",
"w 	c #EDEDED",
"x 	c #F1F1F1",
"y 	c #F0F0F0",
"z 	c #F5F5F5",
"A 	c #F4F4F4",
"B 	c #F9F9F9",
"C 	c #E3E3E3",
"D 	c #101010",
"E 	c #E4E3E3",
"F 	c #E5E5E4",
"G 	c #BAB9B9",
"H 	c #222222",
"I 	c #F6F6F6",
"J 	c #E7E7E7",
"K 	c #FEFEFE",
"L 	c #525252",
"M 	c #F3F3F3",
"N 	c #888888",
"O 	c #FDFDFD",
"P 	c #D3D2D3",
"Q 	c #F1F1F0",
"R 	c #F2F2F2",
"S 	c #EBEBEB",
"T 	c #828282",
"U 	c #FDFEFD",
"V 	c #737373",
"W 	c #EBECEB",
"X 	c #848484",
"Y 	c #FEFFFE",
"Z 	c #FBFBFB",
"` 	c #FAFAFA",
" .	c #EFEFEF",
"..	c #EAEBEB",
"+.	c #EAEAEA",
"@.	c #FBFBFC",
"#.	c #F7F6F6",
"$.	c #F2F1F1",
"%.	c #ECECEC",
"&.	c #E9E9E9",
"*.	c #898989",
"=.	c #FCFCFC",
"-.	c #E9EAEA",
";.	c #D8D8D8",
">.	c #8C8C8C",
",.	c #FEFDFD",
"'.	c #FCFBFC",
").	c #DADADA",
"!.	c #959595",
"~.	c #DEDEDD",
"{.	c #CBCACB",
"].	c #DAD9DA",
"^.	c #717171",
"/.	c #F3F3F2",
"(.	c #DFDEDE",
"_.	c #BCBDBD",
":.	c #7F7F7F",
"<.	c #B3B3B3",
"[.	c #636363",
"}.	c #A2A2A2",
"|.	c #9D9D9D",
"1.	c #7C7C7C",
"2.	c #434343",
"              . . . . .                     ",
"            . + @ # $ % & .                 ",
"            . * # # # # = - .               ",
"  . . . . . . ; > > , ' ) # - . . . . . .   ",
"  . ! ~ { ] ^ / ( _ : < [ } = ^ ^ | 1 2 .   ",
"  . 3 4 5 6 [ 7 8 9 0 0 0 a b c d : e ] .   ",
"  . 3 f g 1 - h i j k k l m n o p q r ~ .   ",
"  . s t u v & w x y z A B C D # & E F | .   ",
"  . ! v . . . . . h h G ~ H # # 4 I I ! .   ",
"  . { J . . . K . # # # # # # L M A x N .   ",
"  . { v . . K O . # # # # # > P Q R S ! .   ",
"  . T v . . K U . # # # @ V 0 y W & S 2 .   ",
"  . X u . Y O Z . # . ` I A  .S u ..J T .   ",
"  . T +.. K O @.. # . #.A $.S %.&.t k ! .   ",
"  . *.J . K =.Z . . . I A  .-.&.v ;.k ! .   ",
"  . >.u . ,.=.'.).X !.A  .w v C ~.8 {.s .   ",
"  . ! S . K O ].> # # ^./.w (.8 8 e _.! .   ",
"  . *.:.>.] <.[.# # # # }.- |.s X 1.:.:..   ",
"  . . . . . . 1 # # # 2.. . . . . . . . .   ",
"              . ) # $ .                     ",
"                . . .                       ",
"                                            "};
