/* XPM */
static const char *supported_xpm[] = {
/* columns rows colors chars-per-pixel */
"16 16 61 1",
"  c #91D007",
". c #91D008",
"X c #92D009",
"o c #93D10C",
"O c #95D210",
"+ c #97D316",
"@ c #99D21B",
"# c #9AD31D",
"$ c #9BD41E",
"% c #9CD321",
"& c #9CD423",
"* c #9FD627",
"= c #A0D628",
"- c #A0D629",
"; c #A1D72A",
": c #A0D52C",
"> c #A3D633",
", c #A4D634",
"< c #A4D831",
"1 c #ACDC44",
"2 c #ACD94A",
"3 c #AEDC48",
"4 c #ADD94C",
"5 c #AFDA51",
"6 c #B6DC63",
"7 c #BDE369",
"8 c #C0DF7A",
"9 c #C1E473",
"0 c #C2E07F",
"q c #C6E67E",
"w c #C7E782",
"e c #C5E186",
"r c #CAE886",
"t c #CBE398",
"y c #D6E6AF",
"u c #D9EFAA",
"i c #DBF0AD",
"p c #D6E6B1",
"a c #DBE7BD",
"s c #DDE8C2",
"d c #E6F4C7",
"f c #E7F5CA",
"g c #E9ECDF",
"h c #ECF7D3",
"j c #E9EDE0",
"k c #EBEDE5",
"l c #ECEDE8",
"z c #EEEEEC",
"x c #F2F9E1",
"c c #F2FAE3",
"v c #F4FAE6",
"b c #F5FBE9",
"n c #F8FCEE",
"m c #F9FDF2",
"M c #FBFDF5",
"N c #FBFDF6",
"B c #FCFEF8",
"V c #FCFEF9",
"C c #FDFEFA",
"Z c gray100",
"A c None",
/* pixels */
"AAAAAzzzzzzAAAAA",
"AAAAke5%@40jzAAA",
"AAza:      &pzAA",
"AAso   93   .yzA",
"Al>   ;CvO   %gA",
"At  o*iZZr$   8z",
"z6.uVZZZZZZnw 2z",
"z, 3BZZZZZZb= #z",
"z,  1NZZZZc-  #z",
"z6  XMZZZZf   2z",
"At  =ZZxnZm   8z",
"Al> <d7o+qh  %gA",
"AAso        .yzA",
"AAza:      &pzAA",
"AAAAke5%@40jzAAA",
"AAAAAzzzzzzAAAAA"
};
