/* XPM */
static const char * tab_remove_xpm[] = {
"16 16 52 1",
" 	c None",
".	c #FFE9E2",
"+	c #FFDBCF",
"@	c #EDBFBB",
"#	c #EE988D",
"$	c #FFC1AD",
"%	c #FFAC92",
"&	c #FDC4B5",
"*	c #F1D3D1",
"=	c #FC664C",
"-	c #FE472B",
";	c #FEDFD5",
">	c #FFA085",
",	c #FF8363",
"'	c #FB8D76",
")	c #FD664A",
"!	c #FE472C",
"~	c #F3897F",
"{	c #FACEC3",
"]	c #FE7656",
"^	c #FF5737",
"/	c #FF4325",
"(	c #F6877B",
"_	c #F8D0C9",
":	c #FE6042",
"<	c #FF4225",
"[	c #FF2E15",
"}	c #F77069",
"|	c #F9C8C0",
"1	c #FE6B51",
"2	c #FF482D",
"3	c #FC6654",
"4	c #FD2F20",
"5	c #FE0C08",
"6	c #F76366",
"7	c #FD7860",
"8	c #FA8B7E",
"9	c #F6A0A0",
"0	c #FF0707",
"a	c #FE0909",
"b	c #F9BCB5",
"c	c #FA9A8F",
"d	c #595959",
"e	c #F3969A",
"f	c #F66B6E",
"g	c #FFFFFF",
"h	c #F3F3F3",
"i	c #AAAAAA",
"j	c #D1D1D1",
"k	c #E8E8E8",
"l	c #DDDDDD",
"m	c #9F9F9F",
" .+   @#        ",
" $%& *=-        ",
" ;>,')!~        ",
"  {]^/(         ",
"  _:<[}         ",
" |123456        ",
" 7/8 90a        ",
" bcdddef  ddddd ",
" dghhhid dghhhid",
" dggggjd dggggjd",
"dghhhhhidghhhhhi",
"dgkkkkkjdddddddd",
"glllllllllllllll",
"jmmmmmmmmmmmmmmm",
"jmgggggggggggggg",
"jmgggggggggggggg"};
