/* XPM */
static const char * taboo_xpm[] = {
"22 16 142 2",
"  	c None",
". 	c #FFFFFF",
"+ 	c #E4E4E4",
"@ 	c #BCBCBC",
"# 	c #9C9C9C",
"$ 	c #8A8B8A",
"% 	c #8E8E8E",
"& 	c #A4A4A4",
"* 	c #C1C1C1",
"= 	c #E3E3E3",
"- 	c #FAFAFA",
"; 	c #C9C9C9",
"> 	c #998787",
", 	c #AA6464",
"' 	c #9F3737",
") 	c #9B1212",
"! 	c #9A1212",
"~ 	c #9D3636",
"{ 	c #B06969",
"] 	c #A89697",
"^ 	c #CBCBCB",
"/ 	c #F4F4F4",
"( 	c #987474",
"_ 	c #9F3A3A",
": 	c #B24040",
"< 	c #CD7C7C",
"[ 	c #DEA9A9",
"} 	c #DEA8A8",
"| 	c #C97979",
"1 	c #AC3D3D",
"2 	c #983838",
"3 	c #AB8787",
"4 	c #F2F2F2",
"5 	c #958383",
"6 	c #9D3939",
"7 	c #BA4E4E",
"8 	c #E9BEBE",
"9 	c #EABFBF",
"0 	c #E2B8B8",
"a 	c #B14A4A",
"b 	c #943636",
"c 	c #AC9999",
"d 	c #D8D8D8",
"e 	c #BDBDBD",
"f 	c #A55F5F",
"g 	c #9A0000",
"h 	c #D38282",
"i 	c #E0A2A2",
"j 	c #E1A2A2",
"k 	c #E2A2A2",
"l 	c #E3A2A2",
"m 	c #CB7C7C",
"n 	c #910000",
"o 	c #B26B6B",
"p 	c #BEBEBF",
"q 	c #E6E6E6",
"r 	c #9D9D9D",
"s 	c #9B3434",
"t 	c #9E0000",
"u 	c #C85F5F",
"v 	c #D37777",
"w 	c #D57777",
"x 	c #D67777",
"y 	c #D77777",
"z 	c #C65D5D",
"A 	c #960000",
"B 	c #903131",
"C 	c #B1B1B1",
"D 	c #D7D7D7",
"E 	c #8B8B8B",
"F 	c #961111",
"G 	c #A00000",
"H 	c #980000",
"I 	c #8B1010",
"J 	c #A9A9A9",
"K 	c #971313",
"L 	c #9F0000",
"M 	c #8A1111",
"N 	c #A5A5A5",
"O 	c #C3C3C3",
"P 	c #A3A3A3",
"Q 	c #9D3B3B",
"R 	c #A50000",
"S 	c #A90000",
"T 	c #AD0000",
"U 	c #B00000",
"V 	c #AF0000",
"W 	c #A10000",
"X 	c #913535",
"Y 	c #BFBFBF",
"Z 	c #BC7777",
"` 	c #920000",
" .	c #AD1010",
"..	c #AF1010",
"+.	c #B01010",
"@.	c #B21010",
"#.	c #B11010",
"$.	c #AB1010",
"%.	c #970000",
"&.	c #880000",
"*.	c #BE7777",
"=.	c #C6C6C6",
"-.	c #E1E1E1",
";.	c #BCAAAA",
">.	c #9F4343",
",.	c #AA2727",
"'.	c #B02727",
").	c #B22727",
"!.	c #AF2727",
"~.	c #A72727",
"{.	c #8A0000",
"].	c #953E3E",
"^.	c #DAD2D2",
"/.	c #A8A8A8",
"(.	c #F8F8F8",
"_.	c #C8A5A5",
":.	c #9C4242",
"<.	c #8D0000",
"[.	c #AB3D3D",
"}.	c #AD3D3D",
"|.	c #AA3D3D",
"1.	c #860000",
"2.	c #B5B5B5",
"3.	c #EDEDED",
"4.	c #C7C7C7",
"5.	c #D2C0C0",
"6.	c #D48F8F",
"7.	c #973A3A",
"8.	c #891111",
"9.	c #881111",
"0.	c #933939",
"a.	c #D58F8F",
"b.	c #E6DDDD",
"c.	c #A7A7A7",
"d.	c #E7E7E7",
"e.	c #DEDEDE",
"f.	c #F5F5F5",
"g.	c #DBDBDB",
"h.	c #BBBBBB",
"i.	c #D0D0D0",
"j.	c #B9B9B9",
"k.	c #9F9F9F",
"                    . . . . . .             ",
"                . + @ # $ % & * = -         ",
"              . ; > , ' ) ! ~ { ] ^ /       ",
"            . ; ( _ : < [ } | 1 2 3 ^ 4     ",
"            + 5 6 7 8 9 9 9 9 0 a b c d     ",
"          . e f g h i j k l k j m n o p q   ",
"          . r s t u v w x y x w z A B C D   ",
"          . E F G . . . . . . . . H I J ^   ",
"          . % K L . . . . . . . . A M N O   ",
"          . P Q g R S T U U V T W n X P *   ",
"          . Y Z ` t  ...+.@.#.$.%.&.*.& =.  ",
"            -.;.>.` ,.'.).).!.~.{.].^./.    ",
"            (.=._.:.<.[.}.1 |.1.].. r 2.    ",
"              3.4.5.6.7.8.9.0.a.b.& c.      ",
"                d.4.; e.f.f.g.h.# /.        ",
"                    i.j.J k.k.J             "};
