/* XPM */
static const char * taboo_disabled_xpm[] = {
"22 16 18 1",
" 	c None",
".	c #EEEEEE",
"+	c #E5E5E5",
"@	c #939393",
"#	c #676767",
"$	c #3E3E3E",
"%	c #BFBFBF",
"&	c #444444",
"*	c #2A2A2A",
"=	c #2C2C2C",
"-	c #424242",
";	c #AAAAAA",
">	c #DBDBDB",
",	c #D9D9D9",
"'	c #4F4F4F",
")	c #E2E2E2",
"!	c #ECECEC",
"~	c #757575",
"            ....      ",
"          +@#$$#@+    ",
"        .%&******&%.  ",
"        %=********=%  ",
"       +&**-;>,'***&+ ",
"      .@**-).!~*****@ ",
"      .#**;.!~***'**#.",
"      .$**>!~***~,**$.",
"      .$**,~***~!>**$.",
"      .#**'***~!.;**#.",
"       @*****~!.)-**@ ",
"       +&***',>;-**&+ ",
"        %=********=%  ",
"        .%&******&%.  ",
"          +@#$$#@+    ",
"            ....      "};
