/* XPM */
static const char * tree_plus_xpm[] = {
"11 11 3 1",
" 	c #FFF7ED",
".	c #B2AB9C",
"+	c #000000",
"           ",
" ......... ",
" .       . ",
" .   +   . ",
" .   +   . ",
" . +++++ . ",
" .   +   . ",
" .   +   . ",
" .       . ",
" ......... ",
"           "};
