/* XPM */
static const char * unresolvable_conflict_xpm[] = {
"22 22 145 2",
"  	c None",
". 	c #FFFFFF",
"+ 	c #FFFFFE",
"@ 	c #FFCD00",
"# 	c #FDFDFD",
"$ 	c #F3F3F3",
"% 	c #EFEFEF",
"& 	c #F6F6F6",
"* 	c #C3C3C3",
"= 	c #48494C",
"- 	c #C1B99C",
"; 	c #CEA500",
"> 	c #FFEC9A",
", 	c #E4E4E4",
"' 	c #A6A6A6",
") 	c #A2A2A2",
"! 	c #B2B2B2",
"~ 	c #9F9F9F",
"{ 	c #828282",
"] 	c #6B6B6B",
"^ 	c #363636",
"/ 	c #AEAEB2",
"( 	c #AAA593",
"_ 	c #F6F4EA",
": 	c #FFFEF8",
"< 	c #A3A3A3",
"[ 	c #B7B7B7",
"} 	c #BEBEBE",
"| 	c #CBCBCB",
"1 	c #ABABAB",
"2 	c #414141",
"3 	c #151515",
"4 	c #060605",
"5 	c #65666B",
"6 	c #000000",
"7 	c #F2F2F2",
"8 	c #FEFEFE",
"9 	c #929292",
"0 	c #E7E7E7",
"a 	c #D8D8D8",
"b 	c #C8C8C8",
"c 	c #BABABA",
"d 	c #ACACAC",
"e 	c #9E9E9E",
"f 	c #999999",
"g 	c #636363",
"h 	c #020202",
"i 	c #DADADA",
"j 	c #DEDEDE",
"k 	c #C6C6C6",
"l 	c #B8B8B8",
"m 	c #9D9D9D",
"n 	c #909090",
"o 	c #838383",
"p 	c #787878",
"q 	c #515151",
"r 	c #080808",
"s 	c #D4D4D4",
"t 	c #949494",
"u 	c #D0D0D0",
"v 	c #B5B5B5",
"w 	c #A8A8A8",
"x 	c #9A9A9A",
"y 	c #8D8D8D",
"z 	c #808080",
"A 	c #727272",
"B 	c #656565",
"C 	c #5B5B5B",
"D 	c #292929",
"E 	c #2A2A2A",
"F 	c #757575",
"G 	c #AAAAAA",
"H 	c #8C8C8C",
"I 	c #7E7E7E",
"J 	c #646464",
"K 	c #565656",
"L 	c #494949",
"M 	c #353535",
"N 	c #060606",
"O 	c #010101",
"P 	c #545454",
"Q 	c #9B9B9B",
"R 	c #8B8B8B",
"S 	c #7C7C7C",
"T 	c #6E6E6E",
"U 	c #616161",
"V 	c #464646",
"W 	c #393939",
"X 	c #282828",
"Y 	c #0B0B0B",
"Z 	c #ECECEC",
"` 	c #202020",
" .	c #707070",
"..	c #606060",
"+.	c #525252",
"@.	c #444444",
"#.	c #373737",
"$.	c #181818",
"%.	c #050505",
"&.	c #030303",
"*.	c #111111",
"=.	c #1B1B1B",
"-.	c #454545",
";.	c #424242",
">.	c #343434",
",.	c #252525",
"'.	c #161616",
").	c #0A0A0A",
"!.	c #101010",
"~.	c #303030",
"{.	c #040404",
"].	c #0C0C0C",
"^.	c #232323",
"/.	c #1D1D1D",
"(.	c #505050",
"_.	c #6F6F6F",
":.	c #141414",
"<.	c #272727",
"[.	c #1C1C1C",
"}.	c #717171",
"|.	c #070707",
"1.	c #090909",
"2.	c #121212",
"3.	c #262626",
"4.	c #2F2F2F",
"5.	c #3C3C3C",
"6.	c #CECECE",
"7.	c #1A1A1A",
"8.	c #2E2E2E",
"9.	c #434343",
"0.	c #4D4D4D",
"a.	c #1E1E1E",
"b.	c #939393",
"c.	c #191919",
"d.	c #2C2C2C",
"e.	c #404040",
"f.	c #4E4E4E",
"g.	c #626262",
"h.	c #2B2B2B",
"i.	c #4A4A4A",
"j.	c #383838",
"k.	c #171717",
"l.	c #919191",
"m.	c #FAFAFA",
"n.	c #3B3B3B",
"                                            ",
"                                    . . .   ",
"                              . . . + @ @ . ",
"              . # $ % & . . * = - ; @ > .   ",
"          . , ' ) ! ~ { ] ) ^ / . ( _ :     ",
"        # < [ $ & , } | 1 2 3 4 5 6 7       ",
"      8 9 0 $ a b c d e f g 6 6 h ! .       ",
"    . ) i j k l d m n o p q 6 6 r } .       ",
"    s t u v w x y z A B C D 6 6 6 E 0       ",
"  . F [ G f H I A J K L M N 6 O 6 6 9 .     ",
"  . P Q R S T U P V W X Y 6 O O O 6 K Z     ",
"  . `  .A ..+.@.#.X $.%.6 O O 6 h &.6 .     ",
"  . *.=.-.;.>.,.'.).O 6 O 6 O %.!.*.6 .     ",
"  . ~.6 h r r &.6 6 O 6 6 {.].'.^./.(..     ",
"  . _.6 6 6 6 O O 6 6 &.).:./.<.^ [.}..     ",
"    b |.6 O O O 6 h 1.2.[.3.4.5.5.3.6.      ",
"    . _.6 O O O |.!.7.^.8.#.9.0.a.b..       ",
"      $ L 6 %.!.c.^.d.M e.f.f.` P .         ",
"        & g.&.$.h.#.;.i.f.j.k.l..           ",
"          m.e n./.6 6 6 D i.* .             ",
"              Z . . . . . .                 ",
"                                            "};
