/* XPM */
static const char * update_disabled_xpm[] = {
"22 16 43 1",
" 	c None",
".	c #EEEEEE",
"+	c #ABABAB",
"@	c #BFBFBF",
"#	c #535353",
"$	c #D0D0D0",
"%	c #595959",
"&	c #525252",
"*	c #DDDDDD",
"=	c #626262",
"-	c #E6E6E6",
";	c #6F6F6F",
">	c #EBEBEB",
",	c #808080",
"'	c #949494",
")	c #EAEAEA",
"!	c #C2C2C2",
"~	c #646464",
"{	c #D4D4D4",
"]	c #989898",
"^	c #B8B8B8",
"/	c #545454",
"(	c #616161",
"_	c #D9D9D9",
":	c #888888",
"<	c #DBDBDB",
"[	c #ADADAD",
"}	c #D7D7D7",
"|	c #E8E8E8",
"1	c #787878",
"2	c #5B5B5B",
"3	c #6B6B6B",
"4	c #DCDCDC",
"5	c #C8C8C8",
"6	c #555555",
"7	c #727272",
"8	c #E2E2E2",
"9	c #C4C4C4",
"0	c #585858",
"a	c #7A7A7A",
"b	c #CECECE",
"c	c #979797",
"d	c #E9E9E9",
"         .++.         ",
"        .@##@.        ",
"        $%&&%$        ",
"       *=&&&&=*       ",
"      -;&&&&&&;-      ",
"     >,&&&&&&&&,>     ",
"     '&&&&&&&&&&'.    ",
"     ....&&&&.....    ",
"        .&&&&.   .).  ",
"        .&&&&.  .!~{. ",
"        .&&&]. .^/&(_ ",
"        ....-:<[#&&~} ",
"           |1&2&&&34  ",
"          .56&&&&78   ",
"           .90&&a-    ",
"            .b:cd     "};
