/* XPM */
static const char *upgrade_available[] = {
/* columns rows colors chars-per-pixel */
"16 16 7 1",
"  c #E35302",
". c #E35708",
"X c #E45808",
"o c #EEE9E5",
"O c #EEEAE5",
"+ c #EEEEEC",
"@ c None",
/* pixels */
"@@@@@@@@@@@@@@@@",
"@@@@@@@@@@@@@@@@",
"@@@++++++++++@@@",
"@@@+X  O+X  O@@@",
"@@@+X  O+X  O@@@",
"++++X  O+X  O+++",
"+.             o",
"+.             o",
"+.             o",
"++++X  O+X  O+++",
"@@@+X  O+X  O@@@",
"@@@+X  O+X  O@@@",
"@@@++++++++++@@@",
"@@@@@@@@@@@@@@@@",
"@@@@@@@@@@@@@@@@",
"@@@@@@@@@@@@@@@@"
};
