/* XPM */
static const char * warning_sign_xpm[] = {
"16 16 58 1",
" 	c None",
".	c #760000",
"+	c #770000",
"@	c #9E0000",
"#	c #8B0000",
"$	c #D72929",
"%	c #BB1414",
"&	c #AF0000",
"*	c #E1AEAE",
"=	c #8C0000",
"-	c #D94141",
";	c #E5E5E5",
">	c #B40000",
",	c #E2ABAB",
"'	c #313131",
")	c #8E0000",
"!	c #DA3C3C",
"~	c #E8E7E7",
"{	c #404040",
"]	c #B80000",
"^	c #E4AAAA",
"/	c #E9E9E9",
"(	c #4D4D4D",
"_	c #900000",
":	c #DB3939",
"<	c #EAE8E8",
"[	c #EAEAEA",
"}	c #5B5B5B",
"|	c #BC0000",
"1	c #E5A7A7",
"2	c #ECECEC",
"3	c #EBEBEB",
"4	c #686868",
"5	c #920000",
"6	c #DC3333",
"7	c #EDEAEA",
"8	c #EDEDED",
"9	c #E1E1E1",
"0	c #C00000",
"a	c #E7A4A4",
"b	c #EFEFEF",
"c	c #EEEEEE",
"d	c #434343",
"e	c #940000",
"f	c #DC2F2F",
"g	c #F0ECEC",
"h	c #F0F0F0",
"i	c #5A5A5A",
"j	c #750000",
"k	c #C40000",
"l	c #E69393",
"m	c #F2F2F2",
"n	c #F1F1F1",
"o	c #990000",
"p	c #D10000",
"q	c #D60000",
"r	c #930000",
"s	c #9F0000",
"       ..       ",
"      +@@+      ",
"      #$%#      ",
"     +&**&+     ",
"     =-;;-=     ",
"    +>,'',>+    ",
"    )!~{{~!)    ",
"   +]^/((/^]+   ",
"   _:<[}}[<:_   ",
"  .|12344321|.  ",
"  567829928765  ",
" #0abc8dd8cba0# ",
" efghbciicbhgfe ",
"jklmnhbccbhnmlkj",
"opqqqqqqqqqqqqpo",
"jrssssssssssssrj"};
