/* XPM */
static const char *install_disabled_xpm[] = {
/* columns rows colors chars-per-pixel */
"22 16 12 1",
"  c gray46",
". c #8d8d8d",
"X c #939393",
"o c #9c9c9c",
"O c #a0a0a0",
"+ c #c3c3c3",
"@ c gray79",
"# c LightGray",
"$ c #e8e8e8",
"% c #f2f2f2",
"& c #fefefe",
"* c None",
/* pixels */
"*****&&&&&&&&&&&&&&&&*",
"*****&OOOOOOOOOOOOOO&*",
"*****&O&&&&&&&&&&&&o&*",
"*****&O&&&&&&&&&&&&o&*",
"*****&O&&&&&&&&&&  &$*",
"*****&O&&&&&&&&&    &*",
"*****&O&&&%&&&&    &@*",
"*****&O&  &$%&    &.#*",
"*****&&    &&    &@X$*",
"*****&o&        &O#o%*",
"*****&o$&      &+#$o&*",
"*****&o&$&    &+#$&O&*",
"*****&O&%$&  &+#$%&O&*",
"*****&O&&&$&&+#$&&&O&*",
"*****&OOOOoXXXooOOOO&*",
"*****&&&&&&&%%%&&&&&&*"
};
