/* XPM */
static const char *keepinstalled_xpm[] = {
/* columns rows colors chars-per-pixel */
"22 16 20 1",
"  c #000200",
". c #060906",
"X c #070c08",
"o c #0b0d0b",
"O c #0e110e",
"+ c #10120f",
"@ c #141514",
"# c #151a16",
"$ c #1c1e1b",
"% c #1d221e",
"& c #2d2d2d",
"* c #4a6ead",
"= c #a4a4a4",
"- c gray68",
"; c #bbbbbb",
": c #dcdcdc",
"> c #eaeaea",
", c #f4f4f4",
"< c #fefefe",
"1 c None",
/* pixels */
"11111<<<<<<<<<<<<<<<<1",
"11111< $  o  . .  oO<1",
"11111<o<<<<<<<<<<<< <1",
"11111< <<<<<<<<<<<< ,1",
"11111< <<<<<<<<<<**<:1",
"11111< <<<<<<<<<****<1",
"11111< <<<>,<<<****<-1",
"11111< <**<:><****<@;1",
"11111<<****<<****<=o:1",
"11111< <********<=;.,1",
"11111< :<******<=;: <1",
"11111< ,:<****<=;:, <1",
"11111<X<,:<**<=;:,< <1",
"11111< <<,:<<=;:,<< <1",
"11111< $   Ooo.   # <1",
"11111<<<<<<,>>,<<<<<<1"
};
