/* XPM */
static const char * step_todo_xpm[] = {
"14 14 3 1",
" 	c None",
".	c #5F6061",
"+	c #333333",
"              ",
"              ",
"              ",
"              ",
"     .++.     ",
"    .++++.    ",
"    ++++++    ",
"    ++++++    ",
"    .++++.    ",
"     .++.     ",
"              ",
"              ",
"              ",
"              "};
