/* XPM */
static const char * taboo_disabled_xpm[] = {
"22 16 73 1",
" 	c None",
".	c #FFFFFF",
"+	c #F1F1F1",
"@	c #DDDDDD",
"#	c #CDCDCD",
"$	c #C4C4C4",
"%	c #C6C6C6",
"&	c #D1D1D1",
"*	c #E0E0E0",
"=	c #FCFCFC",
"-	c #E4E4E4",
";	c #C7C7C7",
">	c #C2C2C2",
",	c #B5B5B5",
"'	c #AAAAAA",
")	c #B4B4B4",
"!	c #C5C5C5",
"~	c #CECECE",
"{	c #E5E5E5",
"]	c #F9F9F9",
"^	c #BBBBBB",
"/	c #E1E1E1",
"(	c #D0D0D0",
"_	c #B9B9B9",
":	c #B3B3B3",
"<	c #CCCCCC",
"[	c #F8F8F8",
"}	c #C1C1C1",
"|	c #E9E9E9",
"1	c #BEBEBE",
"2	c #B1B1B1",
"3	c #EBEBEB",
"4	c #DEDEDE",
"5	c #C0C0C0",
"6	c #A5A5A5",
"7	c #D4D4D4",
"8	c #DFDFDF",
"9	c #A3A3A3",
"0	c #F2F2F2",
"a	c #A6A6A6",
"b	c #C9C9C9",
"c	c #D2D2D2",
"d	c #D3D3D3",
"e	c #C8C8C8",
"f	c #A4A4A4",
"g	c #AFAFAF",
"h	c #D8D8D8",
"i	c #A9A9A9",
"j	c #A7A7A7",
"k	c #A8A8A8",
"l	c #ABABAB",
"m	c #AEAEAE",
"n	c #A1A1A1",
"o	c #E2E2E2",
"p	c #F0F0F0",
"q	c #B8B8B8",
"r	c #EAEAEA",
"s	c #FBFBFB",
"t	c #DADADA",
"u	c #B6B6B6",
"v	c #A2A2A2",
"w	c #BABABA",
"x	c #A0A0A0",
"y	c #F6F6F6",
"z	c #E3E3E3",
"A	c #B2B2B2",
"B	c #F3F3F3",
"C	c #EEEEEE",
"D	c #FAFAFA",
"E	c #EDEDED",
"F	c #E7E7E7",
"G	c #DCDCDC",
"H	c #CFCFCF",
"          ......      ",
"        .+@#$%&*+=    ",
"       .-;>,'')!~{]   ",
"      .->,^&/*(_:<{[  ",
"      +!,}|||||{12(3  ",
"     .45678*****&9%40 ",
"     .~:abcccdccefgh3 ",
"     .!ij........6a7{ ",
"     .%'j........fac/ ",
"     .&,6ki'lll'j92&* ",
"     .8<9amggggm6n<&o ",
"      phq9:,,,,:n)rd  ",
"      sotuv_w__x).~t  ",
"       yzzh:a6Ahp&d   ",
"        Bz-CDDE@#d    ",
"          FG7HH7      "};
