/* XPM */
static const char *update_xpm[] = {
/* columns rows colors chars-per-pixel */
"22 16 36 1",
"  c #000000",
". c #222222",
"X c gray17",
"o c #353535",
"O c #555555",
"+ c #606060",
"@ c #7b7b7b",
"# c #699b23",
"$ c #7ca83f",
"% c #7fa944",
"& c #80aa45",
"* c #8ab055",
"= c #9cba71",
"- c #a0bf75",
"; c #838383",
": c #939393",
"> c gray64",
", c gray68",
"< c #b3b3b3",
"1 c #bcbcbc",
"2 c #aac584",
"3 c #b1cb8d",
"4 c #c1d1aa",
"5 c #c9dab2",
"6 c #c6c6c6",
"7 c #cbcbcb",
"8 c gray84",
"9 c #d6dbd0",
"0 c #dadada",
"q c #dde9ce",
"w c #e4e4e4",
"e c #ebebeb",
"r c #ecf1e6",
"t c #f4f4f4",
"y c #fefefe",
"u c None",
/* pixels */
"uuuuuuuuuuuuuuuuuuuuuu",
"uuuuuuuuuuyyttttuuuuuu",
"uuuuuuuuyt5=&#%=4euuuu",
"uuuuuuuyr2######e7euuu",
"uuuuuuyy2#$3qyqyyw0euu",
"uuuuuuy5#$5yyyyyy 80uu",
"uuuuuyy=#3yyyyyy  o7eu",
"uuuuuy#######yy    1wu",
"uuuuuy*#####yy     X0u",
"uuuuuyt####yy       0u",
"uuuuuye*##yyyyyy@ O<0u",
"uuuuuuye#yyyyyy>. ;1uu",
"uuuuuuyeeyy6y6@. +,7uu",
"uuuuuuue9w      +>1uuu",
"uuuuuuuue:O. XO;,1uuuu",
"uuuuuuuuuu071<<1uuuuuu"
};
