/* XPM */
static const char * autoupdate_xpm[] = {
"22 16 29 1",
" 	c None",
".	c #EEEEEC",
"+	c #EAEBE7",
"@	c #7CAC6E",
"#	c #E6E9E3",
"$	c #6EA45D",
"%	c #217808",
"&	c #639E52",
"*	c #EDEDEB",
"=	c #89B47C",
"-	c #7FAE70",
";	c #A5C49B",
">	c #9DC092",
",	c #BCD1B5",
"'	c #267B0E",
")	c #247A0C",
"!	c #B7CEAE",
"~	c #DEE4DA",
"{	c #4F933C",
"]	c #408A2B",
"^	c #3D8826",
"/	c #3C8726",
"(	c #4D9139",
"_	c #DBE3D7",
":	c #D4DFCF",
"<	c #CEDCC8",
"[	c #EBECE9",
"}	c #EDEDEC",
"|	c #5A9948",
"            .         ",
"           +@#        ",
"          .$%&*       ",
"         .=%%%-.      ",
"        .;%%%%%>.     ",
"       .,'%%%%%)!.    ",
"       ~{]^%%%/](_    ",
"       ...:%%%<...    ",
"          :%%%<       ",
"          :%%%<       ",
"          [___[       ",
"        }}  }}  }}    ",
"       }||}}||}}||}   ",
"       }||}}||}}||}   ",
"        }}  }}  }}    ",
"                      "};
