<svg height="16" width="16" xmlns="http://www.w3.org/2000/svg"><path d="M7 1l-.777 2.332a5 5 0 0 0-.268.11L3.758 2.343 2.344 3.758l1.1 2.199a5 5 0 0 0-.116.268L1 7v2l2.332.777a5 5 0 0 0 .11.268l-1.098 2.197 1.414 1.414 2.199-1.1a5 5 0 0 0 .268.116L7 15h2l.777-2.332a5 5 0 0 0 .268-.11l2.197 1.098 1.414-1.414-1.1-2.199a5 5 0 0 0 .116-.268L15 9V7l-2.332-.777a5 5 0 0 0-.11-.268l1.098-2.197-1.414-1.414-2.199 1.1a5 5 0 0 0-.268-.116L9 1zm1 3a4 4 0 0 1 2.87 1.213A4 4 0 0 1 12 8a4 4 0 0 1-1.213 2.87A4 4 0 0 1 8 12a4 4 0 0 1-2.87-1.213A4 4 0 0 1 4 8a4 4 0 0 1 1.213-2.87A4 4 0 0 1 8 4z" fill="#c0bfbc"/></svg>