<?xml version="1.0" encoding="UTF-8" standalone="no"?>
<svg
   xmlns:dc="http://purl.org/dc/elements/1.1/"
   xmlns:cc="http://creativecommons.org/ns#"
   xmlns:rdf="http://www.w3.org/1999/02/22-rdf-syntax-ns#"
   xmlns:svg="http://www.w3.org/2000/svg"
   xmlns="http://www.w3.org/2000/svg"
   xmlns:sodipodi="http://sodipodi.sourceforge.net/DTD/sodipodi-0.dtd"
   xmlns:inkscape="http://www.inkscape.org/namespaces/inkscape"
   viewBox="0 0 72 36"
   version="1.1"
   id="svg4592"
   sodipodi:docname="day-night-mode.svg"
   inkscape:version="0.92.3 (2405546, 2018-03-11)"
   width="72"
   height="36">
  <metadata
     id="metadata4598">
    <rdf:RDF>
      <cc:Work
         rdf:about="">
        <dc:format>image/svg+xml</dc:format>
        <dc:type
           rdf:resource="http://purl.org/dc/dcmitype/StillImage" />
        <dc:title></dc:title>
      </cc:Work>
    </rdf:RDF>
  </metadata>
  <defs
     id="defs4596" />
  <sodipodi:namedview
     pagecolor="#ffffff"
     bordercolor="#666666"
     borderopacity="1"
     objecttolerance="10"
     gridtolerance="10000"
     guidetolerance="10"
     inkscape:pageopacity="0"
     inkscape:pageshadow="2"
     inkscape:window-width="1513"
     inkscape:window-height="985"
     id="namedview4594"
     showgrid="false"
     inkscape:zoom="13.888889"
     inkscape:cx="36"
     inkscape:cy="18"
     inkscape:window-x="111"
     inkscape:window-y="100"
     inkscape:window-maximized="0"
     inkscape:current-layer="svg4592">
    <inkscape:grid
       type="xygrid"
       id="grid4527"
       visible="true"
       snapvisiblegridlinesonly="false"
       dotted="false" />
  </sodipodi:namedview>
  <rect
     style="opacity:0.65;fill:#eeeeec;stroke:#000000;stroke-width:0;stroke-miterlimit:4;stroke-dasharray:none;stroke-dashoffset:0;stroke-opacity:0.79238754"
     id="rect815"
     width="71.889214"
     height="35.977875"
     x="0.13306901"
     y="0.022126352" />
  <g
     id="g4590"
     style="fill:#000000"
     transform="matrix(1.2727273,0,0,1.2727273,5.7272727,3.7272735)">
    <path
       d="m 12,7 c -2.76,0 -5,2.24 -5,5 0,2.76 2.24,5 5,5 2.76,0 5,-2.24 5,-5 C 17,9.24 14.76,7 12,7 Z M 2,13 H 4 C 4.55,13 5,12.55 5,12 5,11.45 4.55,11 4,11 H 2 c -0.55,0 -1,0.45 -1,1 0,0.55 0.45,1 1,1 z m 18,0 h 2 c 0.55,0 1,-0.45 1,-1 0,-0.55 -0.45,-1 -1,-1 h -2 c -0.55,0 -1,0.45 -1,1 0,0.55 0.45,1 1,1 z M 11,2 v 2 c 0,0.55 0.45,1 1,1 0.55,0 1,-0.45 1,-1 V 2 C 13,1.45 12.55,1 12,1 11.45,1 11,1.45 11,2 Z m 0,18 v 2 c 0,0.55 0.45,1 1,1 0.55,0 1,-0.45 1,-1 v -2 c 0,-0.55 -0.45,-1 -1,-1 -0.55,0 -1,0.45 -1,1 z M 5.99,4.58 C 5.6,4.19 4.96,4.19 4.58,4.58 4.19,4.97 4.19,5.61 4.58,5.99 l 1.06,1.06 c 0.39,0.39 1.03,0.39 1.41,0 0.38,-0.39 0.39,-1.03 0,-1.41 z m 12.37,12.37 c -0.39,-0.39 -1.03,-0.39 -1.41,0 -0.39,0.39 -0.39,1.03 0,1.41 l 1.06,1.06 c 0.39,0.39 1.03,0.39 1.41,0 0.39,-0.39 0.39,-1.03 0,-1.41 z M 19.42,5.99 c 0.39,-0.39 0.39,-1.03 0,-1.41 -0.39,-0.39 -1.03,-0.39 -1.41,0 l -1.06,1.06 c -0.39,0.39 -0.39,1.03 0,1.41 0.39,0.38 1.03,0.39 1.41,0 z M 7.05,18.36 c 0.39,-0.39 0.39,-1.03 0,-1.41 -0.39,-0.39 -1.03,-0.39 -1.41,0 l -1.06,1.06 c -0.39,0.39 -0.39,1.03 0,1.41 0.39,0.38 1.03,0.39 1.41,0 z"
       id="path4588"
       inkscape:connector-curvature="0"
       style="fill:#000000" />
  </g>
  <g
     transform="matrix(1.4887163,0,0,1.4,34.300777,2.2)"
     style="fill:#000000"
     id="g5191"
     inkscape:transform-center-x="1.6653443"
     inkscape:transform-center-y="-0.14237293">
    <path
       inkscape:connector-curvature="0"
       d="m 9.5,2 c -1.82,0 -3.53,0.5 -5,1.35 2.99,1.73 5,4.95 5,8.65 0,3.7 -2.01,6.92 -5,8.65 1.47,0.85 3.18,1.35 5,1.35 5.52,0 10,-4.48 10,-10 0,-5.52 -4.48,-10 -10,-10 z"
       id="path5189"
       style="fill:#000000" />
  </g>
</svg>
