<svg xmlns="http://www.w3.org/2000/svg" height="16" width="16">
<path d="M 7 0 L 7 4 L 9 4 L 9 0 L 7 0 z M 3.0507812 1.6347656 L 1.6367188 3.0488281 L 4.4648438 5.8769531 L 5.8789062 4.4628906 L 3.0507812 1.6347656 z M 12.949219 1.6347656 L 10.121094 4.4628906 L 11.535156 5.8769531 L 14.363281 3.0488281 L 12.949219 1.6347656 z M 8 6 A 2 2 0 0 0 6 8 A 2 2 0 0 0 8 10 A 2 2 0 0 0 10 8 A 2 2 0 0 0 8 6 z M 0 7 L 0 9 L 4 9 L 4 7 L 0 7 z M 12 7 L 12 9 L 16 9 L 16 7 L 12 7 z M 4.4648438 10.121094 L 1.6367188 12.949219 L 3.0507812 14.363281 L 5.8789062 11.535156 L 4.4648438 10.121094 z M 11.535156 10.121094 L 10.121094 11.535156 L 12.949219 14.363281 L 14.363281 12.949219 L 11.535156 10.121094 z M 7 12 L 7 16 L 9 16 L 9 12 L 7 12 z " fill="#c0bfbc" />
</svg>
