<svg xmlns="http://www.w3.org/2000/svg" height="16" width="16">
    <path d="M 5 0 A 5 5 0 0 0 3.3007812 0.30078125 L 7 4 L 4 7 L 0.30273438 3.3027344 A 5 5 0 0 0 0 5 A 5 5 0 0 0 5 10 A 5 5 0 0 0 7.1542969 9.5058594 A 1.0010182 1.0010182 0 0 0 7.3085938 9.7070312 L 12.308594 14.707031 A 1.0010182 1.0010182 0 0 0 13.722656 14.707031 L 14.722656 13.707031 A 1.0010182 1.0010182 0 0 0 14.722656 12.292969 L 9.7226562 7.2929688 A 1.0010182 1.0010182 0 0 0 9.515625 7.1347656 A 5 5 0 0 0 10 5 A 5 5 0 0 0 5 0 z " fill="#c0bfbc" />
</svg>
