<svg height="16" width="16" xmlns="http://www.w3.org/2000/svg"><path d="M3 0C1.892 0 1 .892 1 2v12c0 1.108.892 2 2 2h6v-2H3V2h10v6h2V2c0-1.108-.892-2-2-2zm5 3C5.784 3 4 4.784 4 7s1.784 4 4 4c.349 0 .68-.061 1-.146v-.35l-.73-2.559C8.182 7.97 8.096 8 8 8c-.554 0-1-.446-1-1s.446-1 1-1a.998.998 0 0 1 .926 1.371L10.5 8h1.355c.085-.32.145-.652.145-1 0-2.216-1.784-4-4-4zm5 6c-1.108 0-2 .892-2 2v1h-1v4h6v-4h-1v-1c0-1.108-.892-2-2-2zm0 1c.554 0 1 .446 1 1v1h-2v-1c0-.554.446-1 1-1z" fill="#c0bfbc"/></svg>