<?xml version="1.0" encoding="UTF-8" standalone="no"?>
<svg xmlns:dc="http://purl.org/dc/elements/1.1/" xmlns:cc="http://creativecommons.org/ns#" xmlns:rdf="http://www.w3.org/1999/02/22-rdf-syntax-ns#" xmlns:svg="http://www.w3.org/2000/svg" xmlns="http://www.w3.org/2000/svg" width="16" height="16" viewBox="0 0 16 16.000001" version="1.1" id="svg4243">
<!--

Copyright (C) 2018 Stasiek Michalski <hellcp@opensuse.org>

This image is freely licensed under the terms of Creative
Commons Attribution-ShareAlike 4.0 International license.
You can read terms of the license on:
https://creativecommons.org/licenses/by-sa/4.0/legalcode

-->
  <defs
     id="defs4237" />
  <metadata
     id="metadata4240">
    <rdf:RDF>
      <cc:Work
         rdf:about="">
        <dc:format>image/svg+xml</dc:format>
        <dc:type
           rdf:resource="http://purl.org/dc/dcmitype/StillImage" />
        <dc:title></dc:title>
      </cc:Work>
    </rdf:RDF>
  </metadata>
  <path
     id="path823"
     d="M 6,0 C 2.6862915,0 0,2.6862915 0,6 c 0,3.3137085 2.6862915,6 6,6 1.2450211,-0.0018 2.458645,-0.390881 3.4726562,-1.113281 1.6067708,1.60677 3.2135418,3.213541 4.8203128,4.820312 l 1.414062,-1.414062 C 14.069214,12.655153 12.583263,11.169201 10.884766,9.4707031 11.607475,8.4574674 11.997214,7.2445668 12,6 12,2.6862915 9.3137085,0 6,0 Z m 0,2 c 2.209139,0 4,1.790861 4,4 0,2.209139 -1.790861,4 -4,4 C 3.790861,10 2,8.209139 2,6 2,3.790861 3.790861,2 6,2 Z"
     style="opacity:1;fill:#241f31;fill-opacity:1;stroke:none;stroke-width:2;stroke-linecap:butt;stroke-linejoin:round;stroke-miterlimit:4;stroke-dasharray:none;stroke-opacity:1" />
</svg>
