<svg height="16" width="16" xmlns="http://www.w3.org/2000/svg"><path d="M2 0C.892 0 0 .892 0 2v13c0 .554.446 1 1 1h14c.554 0 1-.446 1-1V4c0-.554-.446-1-1-1H9V2c0-1.108-.892-2-2-2zm8.5 5c.831 0 1.5.669 1.5 1.5S11.331 8 10.5 8c-.316 0-.608-.098-.85-.264L6.12 9.504l3.528 1.762A1.497 1.497 0 0 1 12 12.5c0 .831-.669 1.5-1.5 1.5S9 13.331 9 12.5c0-.143.027-.277.064-.408L5.69 10.406A1.497 1.497 0 0 1 3 9.5a1.497 1.497 0 0 1 2.694-.902l3.371-1.69A1.488 1.488 0 0 1 9 6.5c0-.831.669-1.5 1.5-1.5z" fill="#c0bfbc"/></svg>