<svg xmlns="http://www.w3.org/2000/svg" height="16" width="16">
  <path d="M2 0C.8919999 0-1e-8.89200005 0 2v13c0 .554.446 1 1 1h14c.554 0 1-.446 1-1V4c0-.554-.446-1-1-1H9V2c0-1.10799995-.892-2-2-2H2zm6.0019531 4.4804688c2.7513129-1e-7 4.9824219 2.2322156 4.9824219 4.9824218 0 2.7513104-2.23111 4.9843754-4.9824219 4.9843754-2.751312 0-4.9863281-2.233065-4.9863281-4.9843754 0-2.7502062 2.2350161-4.9824217 4.9863281-4.9824218zm0 1.328125c-2.0178501-1e-7-3.65625 1.6375526-3.65625 3.6542968 0 2.0178474 1.6383999 3.6562504 3.65625 3.6562504 2.0167429 0 3.6523439-1.638403 3.6523439-3.6562504 0-2.0167443-1.635601-3.6542968-3.6523439-3.6542968zm-.4941406.5742187h1.0878906v2.984375h1.9628909v1.0859375H7.515625l-.0078125-4.0703125z" fill="#c0bfbc"/>
  <path fill="none" clip-rule="evenodd" d="M-16.620134-20.653692h24v24h-24z"/>
</svg>
