<svg xmlns="http://www.w3.org/2000/svg" height="16" width="16">
  <path d="M2-2e-7c-1.108 0-2 .8920004-2 2.0000004V15c0 .554.446 1 1 1h14c.554 0 1-.446 1-1V4.0000002c0-.554-.446-1-1-1H9v-1C9 .8920002 8.108-2e-7 7-2e-7zm6 3.9179684c3.066591 0 5.564453 2.497862 5.564453 5.564454 0 3.0665898-2.497862 5.5664058-5.564453 5.5664058-3.066591 0-5.564453-2.499816-5.564453-5.5664058 0-3.066592 2.497862-5.564454 5.564453-5.564454zm0 1.183594c-2.426407 0-4.380859 1.954452-4.380859 4.38086 0 2.4264068 1.954452 4.3808588 4.380859 4.3808588s4.380859-1.954452 4.380859-4.3808588c0-2.426408-1.954452-4.38086-4.380859-4.38086zm-1.599609 1.376953a.65006498.65006498 0 01.00586 0 .65006498.65006498 0 01.587891.386719l1.355468 3.072266h2.488282a.53870885.53870885 0 01.539062.5390618v.154297a.53870885.53870885 0 01-.539062.539063H7.902344a.53870885.53870885 0 01-.13086-.01758.65006498.65006498 0 01-.550781-.384765L5.744141 7.4179672a.65006498.65006498 0 01.332031-.857422l.060547-.02734a.65006498.65006498 0 01.263672-.05469z" fill="#c0bfbc"/>
</svg>
