/* XPM */
static const char * protected_disabled_xpm[] = {
"22 16 20 1",
" 	c None",
".	c #EEEEEC",
"+	c #C2C4C2",
"@	c #6B6F6F",
"#	c #414748",
"$	c #949696",
"%	c #303638",
"&	c #2E3436",
"*	c #32383A",
"=	c #787B7B",
"-	c #C6C8C7",
";	c #616566",
">	c #3E4345",
",	c #D5D6D7",
"'	c #727677",
")	c #FFFFFF",
"!	c #363C3E",
"~	c #FAFAFA",
"{	c #4A4F51",
"]	c #74787A",
"           ....       ",
"         .+@##@+.     ",
"        .$%&&&&%$.    ",
"        +%*=--=*%+    ",
"       .@&=.  .=&@.   ",
"       .#&-....-&#.   ",
"      .;&&&&&&&&&&;.  ",
"      .&&&&&&&&&&&&.  ",
"      .&&&&>,,>&&&&.  ",
"      .&&&&'))'&&&&.  ",
"      .&&&&!~~!&&&&.  ",
"      .&&&&{)){&&&&.  ",
"      .&&&&]))]&&&&.  ",
"      .&&&&&&&&&&&&.  ",
"      .;&&&&&&&&&&;.  ",
"       ............   "};
