/* XPM */
static const char *autodel_disabled_xpm[] = {
/* columns rows colors chars-per-pixel */
"22 16 17 1",
"  c gray50",
". c #8e8e8e",
"X c #949494",
"o c #9a9a9a",
"O c #a3a3a3",
"+ c #ababab",
"@ c gray70",
"# c #bbbbbb",
"$ c #c3c3c3",
"% c #cccccc",
"& c #d2d2d2",
"* c #dbdbdb",
"= c #e2e2e2",
"- c #ececec",
"; c #f1f1f1",
": c #fefefe",
"> c None",
/* pixels */
">>>>>>>>>:::%#:::>>>>>",
">>>>>>>::=#@:;X@%::>>>",
">>>>>>:-+#&;% +%+o-:>>",
">>>>>>:+::-*==*=*# :>>",
"::>>>>:+;=::::=%OO :>>",
": :>>>>-+%--%%$@+ ->>>",
":  :>>>:+@%o#OoX. :>>>",
":   :>>:+%*@%@OoX :>>>",
":    :>:+$:%=$$OX :>>>",
":     ::+%:#:+&+X :>>>",
":     ::+$:#:@&+o :>>>",
":    :>:+$:$;#%+X :>>>",
":   :>>:+;:%;#$+X :>>>",
":  :>>>:&o#*;%%@X&:>>>",
": :>>>>>:*+o  O+%:>>>>",
"::>>>>>>>::::::::>>>>>"
};
