/* XPM */
static const char *checklist_on_xpm[]={
"20 20 3 1",
". c None",
"a c #000000",
"# c #ffffff",
"....................",
"....................",
"..################..",
"..#aaaaaaaaaaaaaa#..",
"..#aaaaaaaaaaaaaa#..",
"..#aa##########aa#..",
"..#aa#######aa#aa#..",
"..#aa######aaa#aa#..",
"..#aa#####aaa##aa#..",
"..#aaaa##aaa###aa#..",
"..#aaaaaaaa####aa#..",
"..#aa#aaaa#####aa#..",
"..#aa##aa######aa#..",
"..#aa##########aa#..",
"..#aa##########aa#..",
"..#aaaaaaaaaaaaaa#..",
"..#aaaaaaaaaaaaaa#..",
"..################..",
"....................",
"...................."};
