/* XPM */
static const char *del_xpm[] = {
/* columns rows colors chars-per-pixel */
"22 16 30 1",
"  c black",
". c #1e1e1e",
"X c #232323",
"o c #2c2c2c",
"O c #323232",
"+ c #3a3a3a",
"@ c gray27",
"# c #4b4b4b",
"$ c #565656",
"% c #595959",
"& c #626262",
"* c #6a6a6a",
"= c #717171",
"- c gray48",
"; c #828282",
": c #8e8e8e",
"> c #929292",
", c #9d9d9d",
"< c #a4a4a4",
"1 c #aaaaaa",
"2 c gray70",
"3 c gray73",
"4 c #c3c3c3",
"5 c #cbcbcb",
"6 c #d5d5d5",
"7 c #d8d8d8",
"8 c #e2e2e2",
"9 c #f4f4f4",
"0 c white",
"q c None",
/* pixels */
"qqqqqqqqq000>-000qqqqq",
"qqqqqqq005;&08o&<00qqq",
"qqqqqq07$=17, $<%O70qq",
"qqqqqq0$007444353- 0qq",
"qqqqqq0$8400005>@# 0qq",
"qqqqqqq7%<77,<;*% 7qqq",
"qqqqqqq0$%>+=@OXX 0qqq",
"qqqqqqq0%<4*>*#+X 0qqq",
"qqqqqqq0$>0,4;:#o 0qqq",
"qqqqqqq0$:0-9%1%O 0qqq",
"qqqqqqq0$:0-0%1$O 0qqq",
"qqqqqqq0$:0:9*,$o 0qqq",
"qqqqqqq0%80,8=;$O 0qqq",
"qqqqqqq01O-281<*.10qqq",
"qqqqqqqq03%O  @%<0qqqq",
"qqqqqqqqq00000000qqqqq"
};
