/* XPM */
static const char *install_xpm[] = {
/* columns rows colors chars-per-pixel */
"22 16 18 1",
"  c #000000",
". c #050805",
"X c #070c08",
"o c #0b0d0a",
"O c #10120f",
"+ c #151a16",
"@ c #1b1c1a",
"# c #1d221e",
"$ c gray57",
"% c gray61",
"& c #adadad",
"* c #d5d5d5",
"= c #d8d8d8",
"- c #e6e6e6",
"; c #efefef",
": c #f2f2f2",
"> c #fefefe",
", c None",
/* pixels */
",,,,,>>>>>>>>>>>>>>>>,",
",,,,,> @  o  . .  oO>,",
",,,,,>o>>>>>>>>>>>> >,",
",,,,,> >>>>>>>>>>>> :,",
",,,,,> >>>>>>>>>>  >*,",
",,,,,> >>>>>>>>>    >,",
",,,,,> >>>-:>>>    >%,",
",,,,,> >  >*;>    > &,",
",,,,,>>    >>    >$ *,",
",,,,,> >        >$& :,",
",,,,,> =>   @  >$&* >,",
",,,,,> :*>    >$&*: >,",
",,,,,>X>:*>  >$&*:> >,",
",,,,,> >>:*>>$&*:>> >,",
",,,,,> #   .      + >,",
",,,,,>>>>>>:--:>>>>>>,"
};
