/* XPM */
static const char * normal_conflict_xpm[] = {
"23 23 204 2",
"  	c None",
". 	c #FFFFFF",
"+ 	c #C1966A",
"@ 	c #C7A58A",
"# 	c #CA9228",
"$ 	c #B67F46",
"% 	c #A36623",
"& 	c #FFFF38",
"* 	c #C48A24",
"= 	c #F0E5DA",
"- 	c #9E6D58",
"; 	c #E2AA0F",
"> 	c #FFFFEB",
", 	c #FEC826",
"' 	c #9B551E",
") 	c #E0D0C4",
"! 	c #9B5400",
"~ 	c #FFFF85",
"{ 	c #FFFFEA",
"] 	c #FFFEA6",
"^ 	c #CC8000",
"/ 	c #CBA37D",
"( 	c #86471F",
"_ 	c #F0FC35",
": 	c #DDE5C0",
"< 	c #1D1E23",
"[ 	c #CBC8B6",
"} 	c #FDE346",
"| 	c #B87314",
"1 	c #CFB9B0",
"2 	c #C88F00",
"3 	c #FFFFB8",
"4 	c #262747",
"5 	c #000000",
"6 	c #040614",
"7 	c #FFFFB2",
"8 	c #F3AF05",
"9 	c #C59065",
"0 	c #82430A",
"a 	c #FFFF88",
"b 	c #47453A",
"c 	c #302D20",
"d 	c #FFFFD2",
"e 	c #FFF681",
"f 	c #C07B19",
"g 	c #B28E79",
"h 	c #D8B552",
"i 	c #FFFFFA",
"j 	c #938C6C",
"k 	c #7F7251",
"l 	c #FFFFB3",
"m 	c #FFF09B",
"n 	c #FBD470",
"o 	c #B76817",
"p 	c #874D11",
"q 	c #FFFFBF",
"r 	c #FFFFEE",
"s 	c #FFFFDF",
"t 	c #DED19F",
"u 	c #C8B479",
"v 	c #FFFF98",
"w 	c #FFE07E",
"x 	c #FFF78E",
"y 	c #CF953A",
"z 	c #F6EBDE",
"A 	c #93664F",
"B 	c #D7B857",
"C 	c #FFFFF2",
"D 	c #FFFBD4",
"E 	c #FFFDCC",
"F 	c #FFFFC2",
"G 	c #000003",
"H 	c #FFED9B",
"I 	c #FFEB8A",
"J 	c #FFDF7C",
"K 	c #FFE47D",
"L 	c #BC6C1B",
"M 	c #D8C7C0",
"N 	c #86521C",
"O 	c #FFFFC9",
"P 	c #FFFFE5",
"Q 	c #FFF7CD",
"R 	c #FFF5C4",
"S 	c #1F1D28",
"T 	c #FFF694",
"U 	c #FFE480",
"V 	c #FFDD79",
"W 	c #FFF189",
"X 	c #DC9F3B",
"Y 	c #D9AA71",
"Z 	c #682A0F",
"` 	c #FFF64C",
" .	c #FFFADF",
"..	c #FFF19E",
"+.	c #FFEE89",
"@.	c #FFF88E",
"#.	c #8A7D55",
"$.	c #FFE77E",
"%.	c #FFE37F",
"&.	c #FFDE87",
"*.	c #FED534",
"=.	c #CD8520",
"-.	c #D1BFBD",
";.	c #B38A11",
">.	c #FFFF95",
",.	c #FFFEDF",
"'.	c #FFF49D",
").	c #FFEE82",
"!.	c #FFEB87",
"~.	c #FFFF99",
"{.	c #FFFF9C",
"].	c #FFFF92",
"^.	c #FFE17F",
"/.	c #FFDC8B",
"(.	c #FFCE2C",
"_.	c #F1A715",
":.	c #D9AC6E",
"<.	c #6E340C",
"[.	c #FFFF68",
"}.	c #FFFFF7",
"|.	c #FFF7AD",
"1.	c #FFF181",
"2.	c #FFEF8D",
"3.	c #FFFF9D",
"4.	c #A39355",
"5.	c #807040",
"6.	c #FFFF8F",
"7.	c #FFE07D",
"8.	c #FFDD7A",
"9.	c #FFDB89",
"0.	c #FFBF10",
"a.	c #FFBF0C",
"b.	c #D89223",
"c.	c #FDFBF7",
"d.	c #AC8E8E",
"e.	c #C7AA18",
"f.	c #FFF7B1",
"g.	c #FFF04F",
"h.	c #FFF29B",
"i.	c #FFF08E",
"j.	c #FFFFAA",
"k.	c #1E190E",
"l.	c #FFE17D",
"m.	c #FFDE8C",
"n.	c #FFD15C",
"o.	c #FFBB00",
"p.	c #FFBC0D",
"q.	c #F9AE11",
"r.	c #D79A48",
"s.	c #6A310A",
"t.	c #FFFF9E",
"u.	c #FFF228",
"v.	c #FFEE3B",
"w.	c #FFF199",
"x.	c #FFF197",
"y.	c #E4CE77",
"z.	c #1E1910",
"A.	c #CAB165",
"B.	c #FFE28A",
"C.	c #FFDD89",
"D.	c #FFC412",
"E.	c #FFBD0F",
"F.	c #FFBB0F",
"G.	c #FFB909",
"H.	c #DF9723",
"I.	c #92696A",
"J.	c #E8DB48",
"K.	c #FFFFBA",
"L.	c #FFFF6D",
"M.	c #FFFF47",
"N.	c #FFFF4B",
"O.	c #FFFF42",
"P.	c #FFFC9D",
"Q.	c #FFED87",
"R.	c #FFF490",
"S.	c #FFF291",
"T.	c #FFED75",
"U.	c #FFD217",
"V.	c #FFC80F",
"W.	c #FFC414",
"X.	c #FFB90A",
"Y.	c #F8AC0B",
"Z.	c #E1A449",
"`.	c #794A32",
" +	c #906933",
".+	c #875516",
"++	c #8A581B",
"@+	c #8D5C2F",
"#+	c #925F2F",
"$+	c #996228",
"%+	c #9E6418",
"&+	c #A16A25",
"*+	c #A66B2E",
"=+	c #AF742D",
"-+	c #B1752E",
";+	c #B87928",
">+	c #BE7717",
",+	c #C27F23",
"'+	c #C78827",
")+	c #CD8C25",
"!+	c #D08E24",
"~+	c #D89424",
"{+	c #DF9822",
"]+	c #DD9629",
"                      .                       ",
"                    . + .                     ",
"                  . @ # $ .                   ",
"                  . % & * =                   ",
"                . - ; > , ' .                 ",
"              . ) ! ~ { ] ^ / .               ",
"              . ( _ : < [ } | .               ",
"            . 1 2 3 4 5 6 7 8 9 .             ",
"            . 0 a . b 5 c d e f .             ",
"          . g h i . j 5 k l m n o .           ",
"          . p q r s t 5 u v w x y z           ",
"        . A B C D E F G H I J K n L .         ",
"      . M N O P Q R q S T U J V W X Y .       ",
"      . Z ` .  ...+.@.#.$.%.J V &.*.=..       ",
"    . -.;.>.,.'.).!.~.{.].^.J V /.(._.:..     ",
"    . <.[.}.|.1.2.3.4.5 5.6.7.8.9.0.a.b.c.    ",
"  . d.e.. f.g.h.i.j.k.5 5 ~.l.m.n.o.p.q.r..   ",
"  . s.t.> u.v.w.x.>.y.z.A.a B.C.D.E.F.G.H..   ",
". I.J.K.L.M.N.O.~ t.P.Q.R.S.T.U.V.W.E.X.Y.Z.. ",
". `. +.+++@+#+$+%+&+*+=+-+;+>+,+'+)+!+~+{+]+. ",
"  . . . . . . . . . . . . . . . . . . . . .   ",
"                                              ",
"                                              "};
