/* XPM */
static const char * satisfied_xpm[] = {
"17 16 10 1",
" 	c None",
".	c #FEFEFE",
"+	c #E8E8E8",
"@	c #757575",
"#	c #8D8D8D",
"$	c #C9C9C9",
"%	c #F2F2F2",
"&	c #C3C3C3",
"*	c #D3D3D3",
"=	c #FFFFFF",
"                 ",
"                 ",
"            .... ",
"           .+@#. ",
"          .+@@@+ ",
"         .+@@@@. ",
" ....+  .+@@@@.$ ",
" .+@#++%+@@@@.&* ",
" .@@@@++@@@@.$*+ ",
" +.@@@@@@@@.&*=  ",
"  +.@@@@@@.&*+   ",
"   +.@@@@.&*+    ",
"    +.@@.&*+     ",
"     +..&*+      ",
"      +&*+       ",
"       ++        "};
