/* XPM */
static const char * sel_autoupdate_disabled_xpm[] = {
/* columns rows colors chars-per-pixel */
"22 16 16 1",
" 	c None",
".	c #fefefe",
"X	c #f4f4f4",
"o	c gray89",
"O	c #cacaca",
"+	c gray73",
"@	c #aeaeae",
"#	c light grey",
"$	c #ececec",
"%	c gray50",
"&	c #9a9a9a",
"*	c white",
"=	c gainsboro",
"-	c #c0c0c0",
";	c #939393",
":	c gray56",
/* pixels */
"                      ",
"          ...XX.      ",
"        ..oO+@+Oo.    ",
"       .X#@@@@@@XoX   ",
"..    ..#@+#$.$..XoX  ",
".%.   .o@+o......%$X  ",
".%%. ..O@#......%%&oX ",
".%*%..@@@@@@@..%%%%=X ",
".%**%.-@@@@@..%%%%%;$ ",
".%***%.@@@@..%%%%%%%$ ",
".%***%X+@@......+%@=$ ",
".%**%..X@......#;%+=  ",
".%*%. .XX..o.o+:%@=o  ",
".%%.   .oX%%%%%%@O=   ",
".%.     XO@:%;@-#o    ",
"..        $oo#==      "};
