/* XPM */
static const char * sel_autoinstall_xpm[] = {
/* columns rows colors chars-per-pixel */
"22 16 18 1",
" 	c None",
".	c #fefefe",
"X	c black",
"o	c #1b1c1a",
"O	c #0b0d0a",
"+	c #070c08",
"@	c #10120f",
"#	c gray95",
"$	c #d5d5d5",
"%	c #e6e6e6",
"&	c gray61",
"*	c #efefef",
"=	c gray68",
"-	c gray57",
";	c #d8d8d8",
":	c #1d221e",
">	c #050805",
",	c #151a16",
/* pixels */
"     ................ ",
"     .XoXXOXX+X+XXO@. ",
"     .O............X. ",
"     .X............X# ",
"..   .X..........XX.$ ",
".X.  .X.........XXXX. ",
".XX. .X...%#...XXXX.& ",
".X.X..X.XX.$*.XXXX.X= ",
".X..X..XXXX..XXXX.-X$ ",
".X...X..XXXXXXXX.-=X# ",
".X...X.;.XXXoXX.-=$X. ",
".X..X.X#$.XXXX.-=$#X. ",
".X.X..+.#$.XX.-=$#.X. ",
".XX. .X..#$..-=$#..X. ",
".X.  .X:XXX>XXXXXX,X. ",
"..   ......#%%#...... "};
