/* XPM */
static const char * step_done_xpm[] = {
"14 14 14 1",
" 	c None",
".	c #C5C8C9",
"+	c #333333",
"@	c #767778",
"#	c #AEB1B2",
"$	c #DBDFE1",
"%	c #D0D3D5",
"&	c #B9BCBE",
"*	c #6B6C6D",
"=	c #3E3E3E",
"-	c #818384",
";	c #545555",
">	c #8C8E8F",
",	c #A3A5A7",
"              ",
"              ",
"        .+@   ",
"        @++   ",
"    #$ %++@   ",
"   &+@ @++%   ",
"   *++.=+-    ",
"   @++=+=$    ",
"   $;+++>     ",
"    .=+=$     ",
"     #+,      ",
"      %       ",
"              ",
"              "};
