/* XPM */
static const char * tree_minus_xpm[] = {
"11 11 8 1",
" 	c #FFF7ED",
".	c #B2AB9C",
"+	c #FEF6EC",
"@	c #FAF2E8",
"#	c #FAF4EB",
"$	c #FFFFFF",
"%	c #FAF4EA",
"&	c #000000",
"           ",
" ......... ",
" .  +@   . ",
" .  #$$  . ",
" .  %$$  . ",
" . &&&&& . ",
" .   $   . ",
" .   $   . ",
" .       . ",
" ......... ",
"           "};
